<?xml version="1.0" encoding="UTF-8"?>
<svg width="491.07mm" height="618.07mm" version="1.1" viewBox="0 0 491.07 618.07" xmlns="http://www.w3.org/2000/svg"><g transform="translate(150.28 144.99)"><path d="m315.86 469.37c-0.11991-0.19403-0.48648-0.35522-0.81456-0.35818-0.32812-4e-3 -0.82448-0.14961-1.103-0.32589l-0.50649-0.3205 0.42824-0.51601 0.42827-0.51601 2.7882 0.70771 3.1698-0.47533 0.71787-1.0081 0.71783-1.0081 0.22172-1.6175 0.22169-1.6176-0.48892 8e-3c-0.26889 4e-3 -0.88579 0.31831-1.3709 0.69773l-0.88194 0.68985-3.247 0.016-2.3257-1.5875-0.67405-1.2347-0.67409-1.2347 0.11948-2.3614 0.11945-2.3614 1.08-1.3428c1.2586-1.5649 2.6812-2.3561 4.2464-2.3618l1.114-4e-3 1.3745 0.9525c1.6669 1.1551 1.7865 1.165 1.9293 0.15875l0.11275-0.79375h1.0583l0.1946 11.619-0.37599 1.8112-0.37599 1.8112-1.0395 0.99592c-1.1769 1.1276-3.1556 1.9181-4.8205 1.9259l-1.1257 5e-3 -0.21802-0.35278zm4.9075-8.141 0.9133-1.0854v-5.2918l-2.0624-2.0624h-2.5126l-2.1653 1.9403-0.30561 1.3615-0.30558 1.3616 0.19311 1.2843 0.19311 1.2843 1.0824 1.1465 1.0824 1.1465h2.9739zm13.719 2.319-0.75702-0.53026-0.41963-1.2714-0.41959-1.2714 0.25604-7.4742-0.8558-0.20359c-0.47068-0.112-0.92047-0.39768-0.99953-0.63486l-0.14375-0.43123 0.3822-0.0441c0.72421-0.0836 0.91284-0.14404 1.3878-0.44506l0.47654-0.30198-0.2007-1.0034-0.20066-1.0034 0.75177-0.52659c1.0418-0.72969 1.3424-0.41505 1.3424 1.4051v1.5667l0.44097 0.0591c0.24254 0.0325 0.91373 0.0722 1.4915 0.0882l1.0505 0.0289 0.11776 0.59602 0.11772 0.59602-1.521 0.10954-1.5211 0.10953-0.1996 8.3855 1.1909 1.3159h0.76846c0.94964 0 1.2474 0.27277 1.0004 0.91645l-0.18983 0.49466h-2.5897l-0.75707-0.53026zm-79.191-4e-3c-0.0996-0.0996-0.0404-1.0776 0.1314-2.1734l0.31242-1.9924-0.27837-0.26176c-0.15311-0.144-0.59588-0.31905-0.98393-0.38904l-0.70556-0.12729v-1.0487l2.221-0.21573 0.20758-0.77406c0.11416-0.42577 0.20972-1.2702 0.21237-1.8765l5e-3 -1.1024-2.1773-0.43547 0.1457-0.44373 0.14566-0.44372 2.2365-0.22091 0.17268-0.77149c0.095-0.42432 0.21453-1.4845 0.26572-2.356l0.093-1.5844 0.6223-0.11807 0.62234-0.11807-0.23202 2.4963-0.23199 2.4962h2.9101l0.16386-0.79375c0.0901-0.43656 0.26159-1.5478 0.38111-2.4694l0.21724-1.6757h1.1164l-0.22733 2.446-0.22733 2.446 1.9408 0.22331v1.0583l-0.97642 0.0357c-1.2935 0.0473-1.3904 0.18299-1.5863 2.2221l-0.1676 1.7441 2.0248 0.23143v1.0583l-2.1866 0.21315-0.43804 2.4511-0.43801 2.4511h-1.0659l0.248-2.4694 0.248-2.4694h-2.8183l-0.21414 0.55802c-0.11779 0.30692-0.21413 1.1671-0.21413 1.9114s-0.0964 1.6045-0.21414 1.9114c-0.20757 0.54099-0.89179 0.74563-1.2604 0.37698zm5.141-6.727c0.11779-0.30691 0.21414-1.18 0.21414-1.9403v-1.3823h-2.734l-0.22049 1.1024c-0.12125 0.60636-0.22048 1.4795-0.22048 1.9403v0.83785h2.7467zm6.3699 6.4594c-0.0947-0.24674-0.1294-4.0964-0.0771-8.5549l0.095-8.1063h1.7639l0.0949 7.837 0.0949 7.8371 3.6051 0.10043 3.6051 0.10048 0.11822 0.61736 0.11818 0.61736h-9.2461zm11.13-5.5109v-5.9595l0.52916-0.20306c0.29105-0.11169 0.7673-0.11169 1.0583 0l0.52917 0.20306v11.919h-2.1167zm8.1793 5.3632c-0.18415-0.35115-0.90808-2.1764-1.6087-4.056-1.4316-3.8404-1.9057-5.0436-2.4446-6.2029l-0.37228-0.80088 0.66819-0.66819 1.4809 0.38728 0.41847 1.4705c0.23015 0.80878 0.72002 2.2643 1.0886 3.2344 0.36855 0.97014 0.84261 2.4386 1.0535 3.2632l0.38333 1.4993h0.98358l0.24582-0.79375c0.13522-0.43656 0.8746-2.5736 1.6431-4.7488l1.3973-3.9551 0.67056-0.21279c0.36879-0.11705 0.82116-0.11974 1.0052-6e-3l0.33471 0.20687-0.53043 1.3152c-0.29171 0.72337-0.83778 1.9882-1.2135 2.8107s-0.68308 1.7088-0.68308 1.9697c0 0.26084-0.10957 0.58381-0.24349 0.71773-0.13395 0.13391-0.65317 1.3113-1.1538 2.6164l-0.91034 2.3729-1.8782 0.21869-0.33482-0.63853zm8.7327 0.33165c-0.0116-0.14552-0.0222-2.786-0.0236-5.8678l-4e-3 -5.6032 0.35263-0.35264 0.35267-0.35267 0.55288 0.21216 0.55287 0.21216v12.017h-0.88194c-0.48507 0-0.89154-0.11906-0.90329-0.26458zm4.8885-5.587-0.10464-5.8516 0.85104-0.70471 0.36823 0.22758c0.20253 0.12516 0.36823 0.44697 0.36823 0.71511 0 0.26815 0.1705 0.59292 0.37889 0.72172l0.37891 0.23414 0.76761-0.69907c0.42221-0.38446 1.3357-0.88064 2.0299-1.1026l1.2622-0.40357 1.2144 0.50736c1.4755 0.61652 2.2061 1.417 2.7376 2.9995l0.40273 1.1992v8.0086h-2.1167v-8.5342l-1.1808-1.9989-0.73254-0.19671c-0.40291-0.1082-1.0872-0.19886-1.5207-0.20151l-0.78818-5e-3 -2.3042 2.0571-0.11698 4.4395-0.11695 4.4395h-1.6734l-0.10467-5.8516zm27.318-2.7032 0.0945-8.5549h1.7639l0.189 17.11h-2.1418zm-225.51 1.4175c-2e-3 -0.24606-0.0139-14.1-0.0262-30.786-0.02-27.127-0.28294-44.167-0.70483-45.685l-0.14708-0.52917 14.902-0.1902 0.22187 1.1093c0.12202 0.61013 0.22186 2.1914 0.22186 3.5138v2.4045l0.33573 0.20747 0.33572 0.20751 5.1494-5.1616 2.2931-1.1141c1.2612-0.61278 3.0868-1.3785 4.0569-1.7016l1.7639-0.58745 3.8806-0.18182 3.8806-0.18179 2.2931 0.57796c1.2612 0.31789 3.3209 1.0918 4.5772 1.7199l2.2841 1.1419 2.1697 1.8368c4.0448 3.4241 6.9987 8.5871 8.2336 14.391 0.24771 1.1642 0.56643 2.5135 0.70826 2.9986 0.14184 0.48507 0.29295 2.5488 0.33582 4.5861l0.0779 3.7042-0.38089 2.4694c-1.4395 9.3327-4.7718 15.461-10.95 20.139-1.8003 1.3632-5.9565 3.2358-8.5261 3.8416l-2.2337 0.52656h-6.35l-1.7639-0.47953c-0.97014-0.26374-2.6719-0.88601-3.7817-1.3828l-2.0178-0.90325-1.78-1.665c-0.97901-0.91575-1.8696-1.5755-1.979-1.466-0.10946 0.10947-0.22608 6.2056-0.25915 13.547l-0.0602 13.35-16.757 0.1892-4e-3 -0.44736zm31.734-34.524c2.315-1.023 3.7614-2.2517 5.0692-4.3066 1.3809-2.1696 1.5792-2.6354 2.2078-5.1846l0.47843-1.9403-8e-3 -3.7042-8e-3 -3.7042-0.60606-2.3217-0.60607-2.3217-2.4514-4.1003-1.4111-1.0501c-0.77611-0.57756-1.9556-1.2834-2.621-1.5684l-1.2099-0.51827-5.4695-0.024-3.3812 1.6368-1.4845 1.4846-1.4846 1.4845-0.81771 1.709-0.81772 1.7089-0.107 7.6367-0.10701 7.6368 0.74433 1.5835c1.5244 3.2431 4.2071 5.5999 7.3897 6.4921l1.605 0.4499 1.7639-0.19283c0.97014-0.10608 2.4695-0.50469 3.332-0.88579zm144.63 26.286-0.46369-0.55873 0.36834-0.5878c0.2026-0.32329 0.66964-0.63257 1.0379-0.68728l0.66954-0.0995 0.43314 0.69949 0.4331 0.69949-0.54652 0.54652c-0.69815 0.69815-1.3456 0.69406-1.9318-0.0123zm17.046 0.32508c-0.60435-0.24384-0.55513-1.3491 0.0837-1.8793l0.52465-0.43547 0.54166 0.20786c0.29792 0.11433 0.64325 0.47254 0.76739 0.79604l0.22571 0.58819-0.65391 0.47815c-0.69409 0.50751-0.79597 0.52423-1.4892 0.24451zm-414.66-12.827c-2.7462-0.4634-5.593-1.3982-8.0945-2.6579l-2.3755-1.1963 1.1197-2.6451c0.61583-1.4548 1.3119-2.7215 1.5468-2.8149l0.42711-0.16986 2.9243 1.3533c1.6084 0.74425 3.7974 1.565 4.8646 1.8238l1.9403 0.47054 5.9972-0.0282 4.0101-1.1887 1.5227-1.1459 1.5228-1.1459 0.97013-1.9129 0.97014-1.9129-4e-3 -2.4944-4e-3 -2.4944-0.8305-1.7835-0.83049-1.7835-1.5473-1.3454-1.5473-1.3455-3.7042-1.7605c-2.0373-0.96831-5.1818-2.469-6.9878-3.3347l-3.2836-1.5742-4.8794-4.603-0.91217-1.8644-0.91216-1.8644-0.28875-2.0705-0.28874-2.0704 0.56066-4.074 2.1293-4.5503 3.3254-3.5551 5.4711-2.7384 2.5921-0.43755 2.5921-0.43752 3.2605 0.21382 3.2605 0.21386 2.6551 0.89129c1.4603 0.49018 3.3002 1.2985 4.0887 1.7962l1.4336 0.90498-0.16872 0.41825c-0.0928 0.23001-0.60285 1.4104-1.1335 2.6231l-0.96475 2.2049h-0.615c-0.33826 0-1.3097-0.38424-2.1588-0.85386s-2.4962-1.1343-3.6604-1.4771l-2.1167-0.62329-6.35-8e-3 -1.7639 0.79343c-2.1343 0.96002-3.5298 2.2311-4.4812 4.0814l-0.71238 1.3856-0.17943 1.9788-0.17943 1.9788 1.5846 3.6834 1.1762 1.0326c1.7518 1.5381 3.7931 2.6459 9.016 4.8931 5.3124 2.2857 7.8422 3.8434 10.245 6.3084l1.6529 1.6954 0.88652 1.7788c1.1266 2.2604 1.609 4.3615 1.6199 7.0547l9e-3 2.1308-0.54078 2.0762c-0.29743 1.1419-0.95754 2.842-1.4669 3.7778l-0.92615 1.7017-2.0551 1.9603-2.0552 1.9603-4.4534 2.0193-2.703 0.55835-2.703 0.5583-2.9253-0.0415c-1.6089-0.0229-3.6665-0.16659-4.5725-0.31948zm62.068-0.1876c-1.1113-0.26938-2.8444-0.90728-3.8514-1.4176l-1.8309-0.92781-1.8231-1.7242-1.8231-1.7242-0.92848-1.7059c-0.51066-0.93828-1.1718-2.6402-1.4693-3.7821l-0.54077-2.0762v-1.9944c0-1.0969 0.16116-2.8495 0.35813-3.8946l0.35814-1.9002 2.3975-5.0596 2.1279-2.0951 2.1279-2.0951 2.8481-1.4817c3.6639-1.9062 5.9246-2.6712 10.55-3.5697l3.7508-0.7287 9.7982-0.42848-0.20416-2.8541-0.20416-2.8542-1.3453-4.3033-1.0969-1.5943-1.0969-1.5943-1.6907-1.0749c-0.92986-0.59122-2.405-1.2748-3.2782-1.5192l-1.5875-0.44425-6.7028-8e-3 -2.1167 0.45329c-2.3358 0.50016-4.9839 1.5286-6.8792 2.6718l-1.2347 0.74468-0.57169-0.12376-0.57169-0.12379-1.9635-4.6198 0.49509-0.34375c1.5089-1.0478 6.5156-3.2106 8.9618-3.8714l2.8222-0.76235 9.8778-0.0698 2.5118 0.78997 2.5118 0.78998 4.3678 2.9167 1.35 1.8086c1.8316 2.4538 2.7466 4.3636 3.6266 7.5698l0.74262 2.7055 0.29673 19.226c0.1632 10.575 0.33517 19.941 0.38216 20.814l0.0854 1.5875-3.0558 0.10149-3.0559 0.10146-0.18884-0.9834c-0.10387-0.54091-0.29294-2.1372-0.42017-3.5474l-0.23133-2.564-4.4904 4.2006-2.9218 1.4402-2.9218 1.4402-4.9389 1.0334-5.2917-0.0466-2.0205-0.48979zm11.526-6.5621c1.1537-0.38749 2.9625-1.2786 4.0196-1.9802l1.9219-1.2757 1.5147-2.0575 1.5147-2.0575 0.72757-1.9446 0.72757-1.9446v-12.781l-10.054 0.44273-6.7028 1.406-5.7583 2.8485-3.1726 3.5287-0.56163 1.6483-0.56163 1.6483v5.4923l1.4066 3.7594 1.3252 1.2697c1.5662 1.5005 3.1233 2.3363 5.1445 2.7613l1.4724 0.30957 2.4694-0.1843 2.4694-0.18425zm105.35 6.7497c-7.9746-1.6812-13.694-6.2471-17.316-13.823l-1.3985-2.9255-1.4444-5.6444-0.21421-3.9108-0.21421-3.9108 0.43881-3.4976 0.4388-3.4976 0.87789-2.8222c2.1573-6.9352 6.3773-12.518 12.041-15.928l2.004-1.2068 2.8222-0.90223 2.8222-0.90219 7.0556-0.35695 2.6458 0.55732 2.6458 0.55736 5.8552 2.8868 4.1923 4.1021 0.18312-33.963 6.2856-0.2055 0.2771 0.27916 0.2771 0.27912 0.12846 83.961-6 0.2026-0.25875-4.4862-0.25876-4.4862-1.2837 1.5614c-2.9971 3.6452-6 5.7202-10.459 7.2272l-2.8188 0.95264-3.8806 0.11596-3.8806 0.11592zm8.886-6.1536 2.3838-0.50515 4.9433-2.5976 3.8933-4.2052 1.022-2.0245c0.56209-1.1135 1.2714-2.9872 1.5763-4.1639l0.55437-2.1394-0.0052-7.8866-0.0052-7.8866-0.52143-2.2116c-0.28679-1.2164-0.93789-3.0334-1.4469-4.0379l-0.92545-1.8263-1.9875-2.0841c-3.0292-3.1764-6.3804-4.8301-10.827-5.3424l-2.0971-0.24165-4.9389 0.76464-5.1982 2.5352-4.1786 4.2439-3.0754 6.4363-1.3062 5.2917 0.01908 5.1153 0.01909 5.1153 0.6398 2.4694c1.8404 7.1036 5.8763 12.306 11.086 14.29 3.6098 1.3749 6.7992 1.6488 10.375 0.89094zm108.31 5.6189c-1.0139-0.27308-2.7601-0.95955-3.8806-1.5255l-2.0371-1.029-3.7354-3.7374-2.8118-5.6888-1.4738-6.7028-0.16631-18.609-0.16631-18.609h17.349l0.012 32.632 1.0382 4.9011 1.2132 1.8271 1.2132 1.8272 1.548 0.74934 1.548 0.74937 4.5397-8e-3 1.7639-0.83181c2.004-0.94506 2.8258-1.7674 4.2738-4.2766l1.0179-1.7639 0.0925-17.815 0.0925-17.815 16.925-0.189v23.764c0 13.07 0.10312 25.449 0.22913 27.508l0.22909 3.7445-14.287 0.20539-0.30073-0.56279c-0.1654-0.30952-0.41044-2.0161-0.54453-3.7924l-0.2438-3.2296h-0.29103c-0.16006 0-1.5264 1.247-3.0362 2.7711l-2.7452 2.7711-2.3872 1.1303c-1.3129 0.62163-3.2654 1.359-4.3387 1.6386l-1.9516 0.50832-6.8447-0.0466-1.8434-0.4965zm77.514 0.0217c-4.4021-0.74683-9.8819-2.5099-10.398-3.3455-0.1088-0.17603 0.29552-2.2752 0.89846-4.6649 0.60296-2.3896 1.1803-4.8729 1.2829-5.5184l0.18662-1.1736 0.90643-0.34784 1.3571 0.67543c1.3749 0.68425 4.7439 1.834 7.3953 2.5238l1.452 0.37779h7.4167l2.4968-1.0432 1.4699-2.0643v-3.5132l-1.4394-1.3004c-1.4882-1.3445-3.3165-2.2644-6.2249-3.1324-1.6626-0.49615-5.7165-2.3512-8.308-3.8018-0.73265-0.4101-2.2951-1.6938-3.4722-2.8527l-2.1401-2.1071-0.87316-1.9743c-0.4802-1.0859-1.0294-2.82-1.2205-3.8535l-0.34742-1.8792 0.36308-2.6102 0.36305-2.6102 1.1167-2.3378 1.1167-2.3378 3.8837-3.8837 1.9767-1.1497c2.1176-1.2316 2.909-1.5603 6.21-2.5796l2.1167-0.65356 11.994 0.0416 2.863 0.73544c1.5747 0.40453 3.6106 1.0662 4.5243 1.4703l1.6612 0.73488-0.20556 0.64766c-0.29785 0.93839-1.0582 3.7608-1.7782 6.6006-0.34435 1.3582-0.76133 2.8258-0.92664 3.2614l-0.30057 0.79192-1.8605-0.76288c-1.0233-0.4196-2.8924-1.0446-4.1535-1.389l-2.2931-0.62604-6.35-8e-3 -1.2035 0.60039c-1.5123 0.75448-2.466 2.0272-2.7031 3.6073l-0.18405 1.2265 0.67987 1.0851 0.67984 1.0851 2.7766 1.4395c1.5271 0.79174 3.491 1.6284 4.3641 1.8592 0.87313 0.23085 3.0162 1.1183 4.7625 1.9721l3.175 1.5524 4.0562 3.1873 1.2291 1.8511c0.67599 1.0181 1.4973 2.7225 1.8251 3.7875l0.59605 1.9364v6.35l-0.59605 1.9364c-0.79287 2.5758-2.5677 5.1791-4.872 7.1462l-1.8856 1.6097-2.293 1.0612c-4.5356 2.099-8.6511 2.8996-14.64 2.8479l-3.8806-0.0335-2.6458-0.44888zm54.681-0.0152c-8.5176-1.4934-14.29-5.0558-18.566-11.458-2.7644-4.1388-4.1371-9.5074-4.1042-16.051 0.0446-8.8602 2.2292-15.205 7.2645-21.097l1.7493-2.047 2.1539-1.5355c2.5291-1.803 5.8294-3.3718 9.033-4.2938l2.2931-0.6599h10.583l2.827 0.94837c3.7089 1.2442 5.7808 2.4338 8.2986 4.7648l2.0668 1.9135 1.3669 2.1838c1.5509 2.478 2.9395 5.7998 3.7797 9.0422l0.57309 2.2116 0.2069 4.1152 0.2069 4.1152-0.25424 2.3742-0.25425 2.3741h-35.597l-0.21322 0.55566-0.21322 0.55563 0.4105 1.37c0.52288 1.7453 2.2823 4.0556 4.2059 5.5228l1.5016 1.1453 2.8886 0.91249 2.8886 0.91253 10.31-0.0346 1.7335-0.33341c2.3242-0.447 5.829-1.3018 6.5524-1.5981l0.58547-0.23981 0.19487 0.64286c0.10721 0.35359 0.35479 1.5954 0.55023 2.7595 0.1954 1.1642 0.59831 3.2278 0.89531 4.586 0.29701 1.3581 0.54 2.7251 0.54 3.0377v0.56836l-2.3812 0.72281c-5.9887 1.8177-11.179 2.5693-17.365 2.5143l-4.0662-0.0362zm13.998-35.308 0.21731-0.56632-0.40122-1.7383c-0.2207-0.95606-0.7113-2.4189-1.0903-3.2508l-0.68901-1.5125-3.1512-2.9047-1.5313-0.43212c-1.9578-0.55252-4.6361-0.55146-6.6 4e-3l-1.5409 0.43469-3.4507 3.2277-1.0833 2.2004-1.0833 2.2004-0.19483 1.4526-0.19481 1.4526h20.576l0.21732-0.56635zm-468.56 34.711c-0.0954-0.24984-0.13237-13.154-0.0822-28.676l0.0911-28.222h6.7028v57.15l-6.5383 0.20303zm60.325 0c-0.0952-0.24984-0.13216-19.266-0.0822-42.258l0.0908-41.804h6.7028v84.314l-6.5383 0.20303zm70.269 0.16768c-0.0971-0.15713-0.2178-13.061-0.26816-28.676l-0.0916-28.39 6.476-0.20289v8.4932l0.26458-0.0261c0.14552-0.0145 0.90549-0.84402 1.6888-1.8436l1.4242-1.8173 5.4123-3.6812 2.9252-0.92749 2.9252-0.92745 5.9972-0.37183 5.2917 1.1186 2.4694 1.2173 2.4694 1.2173 1.9454 1.9486c2.3943 2.3982 4.0161 5.0231 5.1208 8.2883l0.8428 2.4911 0.37926 2.9187 0.37926 2.9188-0.10043 18.168-0.10044 18.168h-6.7028l-0.38803-38.806-0.61048-2.1167c-0.33576-1.1642-1.0134-2.9484-1.5058-3.965l-0.89532-1.8484-3.1342-3.1342-4.0406-1.9769-7.0644-0.25837-2.2931 0.76817c-5.1545 1.7268-9.0472 5.5407-11.182 10.955l-0.62129 1.5759-0.3677 38.806-6.4689 0.2021-0.17658-0.28571zm237.42-0.68076-0.2352-0.23516v-79.524l0.97077-0.80567 7.8931 0.095 7.8931 0.0951 0.1794 80.61h-8.233c-4.5282 0-8.3388-0.10584-8.4682-0.2352zm-366.29-66.822-1.1107-0.32533-2.1536-2.4528-0.4661-2.4845 0.22968-1.2244 0.22969-1.2243 0.90993-1.0814c0.50046-0.59474 1.3594-1.3138 1.9087-1.5979l0.99879-0.5165h2.4002l1.1796 0.79495c0.64879 0.43723 1.4843 1.3167 1.8568 1.9544l0.67713 1.1594v3.4714l-0.67054 1.1482-0.67055 1.1481-1.0458 0.59489c-0.57522 0.3272-1.5221 0.6773-2.1042 0.77802l-1.0583 0.18312zm225.83-43.711-3.8806-0.22666-1.5875-0.72002c-0.87312-0.39603-3.3338-1.3095-5.4681-2.0299-2.1343-0.72044-4.8196-1.7861-5.9674-2.368-4.0463-2.0516-7.8485-5.5107-10.579-9.6242l-1.269-1.9118v-2.1716l1.0677-2.2599 1.0677-2.2599 0.52738-0.20235 0.52738-0.20239 1.8445 0.73505c1.8963 0.75568 4.0481 1.4426 7.1361 2.278 0.97014 0.26247 4.2245 0.73703 7.2319 1.0546 3.0074 0.31753 5.6679 0.63538 5.9121 0.70629 0.55152 0.16009 0.81184 0.80091 2.21 5.4404 1.1861 3.9356 3.2264 8.5034 5.1637 11.56 0.64794 1.0224 1.1781 2.0146 1.1781 2.2049v0.34594l-0.61736-0.061c-0.33955-0.0335-2.3636-0.16298-4.4979-0.28762zm18.351-2.5618c-6.9877-7.5426-11.367-17.33-13.377-29.898-0.51285-3.2067-1.2617-11.778-1.3869-15.875l-0.05932-1.9403h36.689l-0.0831 5.468-0.0831 5.4681-0.7088 4.4097c-1.7383 10.815-5.2535 20.965-9.0851 26.235-1.708 2.349-5.0275 6.4682-6.3743 7.9099l-1.0584 1.133h-1.7767zm21.152 2.5441-0.21756-0.352 2.1268-4.1716c2.1683-4.2529 2.6751-5.5346 3.7821-9.5633l0.62711-2.2824 1.4463-1.4463 1.4463-1.4463 2.1014-0.4016c1.1558-0.22088 3.1333-0.49252 4.3945-0.60361s3.4043-0.51304 4.7625-0.89323c1.3582-0.38019 3.9659-1.0974 5.7949-1.5937l3.3255-0.90255 1.8878 0.78193 2.0333 4.3674 0.13098 2.7293 0.13099 2.7293-0.65394 1.8185-0.65393 1.8185-1.3535 1.5376c-0.74441 0.84568-1.5681 1.5376-1.8304 1.5376-0.26228 0-1.5273 0.71914-2.8112 1.5981-3.9338 2.6932-9.7915 4.1547-18.348 4.5777-2.1343 0.10555-4.786 0.26406-5.8926 0.35229l-2.0121 0.1604zm34.051-8.5536c0-0.0552 0.3175-1.0038 0.70555-2.1078l0.70556-2.0074v-1.3915c0-2.0433-0.96614-5.5122-2.3296-8.3646-1.1929-2.4956-1.4734-3.9288-0.89358-4.5667 0.48354-0.53209 2.0578-5.3079 3.0175-9.1546 1.268-5.0818 1.3833-5.8124 3.37-21.343 0.21097-1.6492 0.53468-6.7292 0.71938-11.289 0.18469-4.5596 0.42623-8.9235 0.53676-9.6974l0.20097-1.4071 0.73979-0.78747c0.40689-0.43314 1.2781-0.96516 1.936-1.1823l1.1963-0.39479 0.85205 0.55827 0.85204 0.5583 0.1883 1.1492c0.45497 2.7767 0.9005 13.475 0.88529 21.258-0.017 8.6796-0.207 11.768-1.2156 19.756-0.3185 2.5224-0.71528 5.6974-0.88174 7.0556s-0.48063 3.8982-0.69814 5.6444c-0.21752 1.7462-0.54746 4.4384-0.73321 5.9826l-0.33773 2.8076-0.88738 1.2494c-0.48805 0.68717-1.4977 2.0175-2.2436 2.9563-1.7513 2.2041-5.6849 5.4694-5.6849 4.719zm-105.12-13.922c-1.1503-2.731-1.5795-3.9709-3.3274-9.6132-1.5031-4.8522-3.0413-8.7294-5.1784-13.053l-2.0054-4.0569-0.46854-2.6836 1.2109-4.0191 0.0022-5.9972-1.2752-3.8382 0.22215-4.1315c0.12218-2.2723 0.3976-5.2981 0.61204-6.724 0.21444-1.4259 0.4617-3.1072 0.54947-3.7362l0.15958-1.1437 1.6382-0.41116 1.4396 0.38763 1.4396 0.38764 0.72447 0.92103 0.72447 0.92099v10.697l0.52576 6.1574c0.78239 9.163 1.6498 15.529 2.9778 21.856 0.83417 3.9738 2.5618 10.32 3.3874 12.443 0.28452 0.73155 0.5173 1.8776 0.5173 2.5468v1.2167l-0.6876 1.3338c-0.37818 0.73357-0.8505 1.7704-1.0496 2.3039-0.1991 0.53358-0.50267 0.97014-0.6746 0.97014s-0.83082-1.2303-1.4642-2.734zm20.015-0.0689-1.6384-1.039-1.0688-1.8714c-1.3362-2.3394-2.4093-5.8626-2.5579-8.3977l-0.11372-1.9403 7.6568 0.2182 2.5738 0.84882-0.0084 5.1109-0.0084 5.1109-0.481 1.16c-0.8671 2.0912-1.9917 2.2977-4.354 0.79953zm63.477 0.0514c-0.316-0.34922-0.81686-1.3216-1.113-2.161l-0.53846-1.5262v-8.3617l1.5875-1.0084 9.2613-0.49283 0.21373 0.34579 0.21372 0.34583-3.2484 10.142-0.85061 0.91345c-0.90996 0.97719-3.5626 2.4379-4.4272 2.4379-0.28823 0-0.7826-0.28568-1.0986-0.63486zm-75.113-2.3218-1.1468-0.77283-1.283-2.2066c-1.3893-2.3894-2.8085-6.3532-3.5235-9.8409l-0.45001-2.1951 0.24548-0.24549 0.24548-0.24547 0.79322 0.38379c0.73183 0.35412 3.8055 1.4864 7.0867 2.6104l1.3546 0.46405 0.37104 0.69331 0.37104 0.69328-0.19598 4.6741-0.19598 4.6741-0.64768 0.87563c-0.35622 0.48161-0.92446 0.95098-1.2628 1.0431l-0.61509 0.16743zm87.666-0.3065c-0.19052-0.24253-0.62846-1.1952-0.97319-2.117l-0.6268-1.676 0.1769-3.3819 0.17689-3.3819 1.4456-1.4455 3.9991-1.3151c2.1995-0.7233 4.1181-1.2479 4.2637-1.1658 0.88301 0.49809-0.95085 7.5342-3.0363 11.65l-0.90726 1.7904-2.4015 1.4842h-1.7706zm-74.352-12.141c-2.7381-0.25489-5.6796-0.80885-8.8194-1.661-1.7462-0.47392-4.743-1.2828-6.6595-1.7974-3.8932-1.0455-4.8639-1.5534-5.4569-2.855-0.56749-1.2455-0.50893-2.0681 0.21021-2.953l0.61736-0.75963 3.8806-0.5145c2.1343-0.28296 5.3093-0.68209 7.0556-0.88695 6.7521-0.79216 12.013-1.3773 12.443-1.3839l0.44893-7e-3 -0.09615 6.4382-0.09615 6.4382-1.0583 0.0366c-0.58208 0.0201-1.6933-0.0226-2.4694-0.0948zm59.796-6.2919v-6.5264l0.79375 4e-3c1.0316 5e-3 10.869 0.93863 14.728 1.3971 3.3639 0.39967 7.0956 1.1531 8.5549 1.7273l0.97014 0.38174v3.0695l-1.668 1.567-4.1931 1.3622c-2.3062 0.74923-5.1873 1.6198-6.4024 1.9346-2.1143 0.54779-9.7807 1.5875-11.814 1.6021l-0.97014 7e-3v-6.5264zm-82.373-11.818c-0.32876-0.53196-0.866-9.789-0.87454-15.069l-0.0075-4.662 0.57158-1.688c0.68685-2.0284 2.2038-4.0293 3.805-5.0189l1.1747-0.72602h3.5963l2.4864 2.1831 1.0659 3.5894v18.187l-2.5576 0.75667c-1.4067 0.41617-3.9491 1.2166-5.6497 1.7788-3.5426 1.1711-3.3255 1.1309-3.6106 0.66965zm106.88-0.16669c-0.76902-0.24165-2.4301-0.72344-3.6913-1.0707-1.2612-0.34727-3.0577-0.86769-3.9923-1.1565l-1.6992-0.52514-0.56008-0.85478-0.56007-0.85478 0.40948-5.3587c0.22521-2.9473 0.41193-7.0256 0.41494-9.0629l5e-3 -3.7042 0.6773-1.492 0.67729-1.492 1.167-0.71152 1.167-0.71151h3.7182l2.7342 1.726 1.0726 2.1464c0.5899 1.1805 1.2527 3.0144 1.473 4.0752l0.40043 1.9289-0.40688 5.5569c-0.22378 3.0563-0.49205 6.9362-0.59616 8.6221l-0.18929 3.0652-0.41175 0.15797c-0.22647 0.0869-1.041-0.0396-1.81-0.28127zm-17.45-4.0967c-2.2313-0.34939-5.4063-0.81086-7.0556-1.0254l-2.9986-0.39014-0.60199-0.60021-0.60198-0.60022 0.34564-8.1139 0.34563-8.1139 0.57542-1.5875c0.31648-0.87313 1.0355-2.2632 1.5978-3.0891l1.0224-1.5016 2.7571-1.4066h3.867l0.21803 0.35278c0.11991 0.19403 0.52337 0.35278 0.89657 0.35278h0.67854l1.5457 1.4993 1.5457 1.4993 0.83524 2.1167 0.83523 2.1167 0.23278 17.302-0.36576 0.96203-0.36577 0.96202-0.62609-0.0501c-0.34435-0.0275-2.4517-0.33591-4.683-0.68534zm-75.837-7.9678-0.45714-8.4065 0.43569-2.1167c0.71358-3.4668 2.6769-5.8794 5.9134-7.2667l1.5649-0.67077h3.4941l0.95772 0.60826c1.9983 1.2692 3.4302 3.803 4.3412 7.682l0.4971 2.1167v13.204l-1.1974 1.1974-5.3985 0.78539c-2.9692 0.43194-6.365 0.89518-7.5462 1.0294l-2.1477 0.24398zm58.152 6.0697c-0.0903-0.0902-3.4716-0.18157-7.5141-0.20295l-7.35-0.0389-1.67-0.63493v-2.7805c0-3.6066 0.6658-11.865 1.0901-13.52 0.18184-0.70964 0.84441-2.0547 1.4724-2.989l1.1417-1.6987 1.7639-1.3401 1.7639-1.34 3.7042-1.0934 3.7042 1.1083 3.189 2.3586 1.3557 1.9684 1.3557 1.9684 0.66577 2.401 0.66578 2.401v12.43l-1.2903 1.1677h-1.9419c-1.068 0-2.0157-0.0738-2.106-0.16412zm-38.514-0.47593c-0.3107-0.061-0.65447-0.39306-0.76394-0.73794-0.10947-0.34491-0.13849-3.7875-0.0645-7.6502l0.13453-7.0232 0.53752-1.5042c0.29564-0.82733 1.1506-2.4009 1.9-3.4968l1.3625-1.9926 1.5821-1.0098c0.87014-0.55537 2.2176-1.1809 2.9944-1.3901l1.4123-0.38026 1.8883 0.45297 1.8883 0.453 1.8675 1.3373 1.8675 1.3373 1.2431 1.8728c0.68371 1.03 1.5355 2.741 1.8929 3.8022l0.64981 1.9294v12.839l-0.45785 0.45946-0.45784 0.45949-9.4558 0.17639c-5.2007 0.097-9.71 0.12651-10.021 0.0655zm-74.031-37.931c-0.70932-0.26455-2.022-0.91014-2.917-1.4346l-1.6273-0.95369-2.7953-3.5364-0.53599-1.8048-0.53599-1.8049v-19.233l0.3277-0.20253c0.18024-0.1114 2.6604-0.23058 5.5115-0.26486l5.1838-0.0623 0.43952 0.60107 0.43952 0.60108-0.18176 8.851-0.18176 8.851 1.3378-0.26237v-17.763l0.40397-0.40551 0.40397-0.40551 5.1395 5e-3c2.8267 3e-3 5.3127 0.11189 5.5245 0.24276l0.38501 0.23795-0.13352 19.161-0.5107 1.7269c-0.95336 3.2237-3.32 5.8495-6.5473 7.2643l-1.4904 0.65338-6.35 0.41917-1.2897-0.48094zm33.821 0.10675c-0.73439-0.18426-2.1726-0.87069-3.1961-1.5254l-1.8608-1.1903-1.092-1.3788c-1.6016-2.0223-3.8246-6.782-5.0673-10.85-0.5989-1.9605-1.2218-3.9614-1.3842-4.4465-0.16239-0.48507-0.55319-2.0726-0.86845-3.5278-0.31526-1.4552-0.71512-3.2015-0.88857-3.8806-0.94161-3.6865-2.0007-15.016-2.3384-25.013l-0.23117-6.8448 1.37 0.26097c0.7535 0.14353 2.0108 0.37555 2.794 0.51561 0.78321 0.14005 1.5997 0.36322 1.8144 0.49593l0.39043 0.2413 0.22124 3.0892c1.6419 22.926 1.8572 24.589 4.6945 36.25l0.94414 3.8806 1.2047 2.293c1.3413 2.5533 2.9028 4.3768 4.4343 5.1785l1.0166 0.53217 3.0206-0.45297 1.7555-1.3059c0.96552-0.71826 3.1456-2.5397 4.8446-4.0477 6.5259-5.7921 15.505-10.925 23.977-13.707 1.7437-0.57253 6.1567-1.6911 10.339-2.6206 0.44764-0.0995 2.6701-0.41245 4.9389-0.69547l4.125-0.51457 13.406 7.1e-4 3.8806 0.49643c6.1621 0.78831 13.379 2.5719 17.992 4.4466 0.58208 0.23656 1.3758 0.55396 1.7639 0.70533s2.2864 1.0243 4.2185 1.9399c6.2456 2.9596 11.672 6.6725 17.213 11.777l3.0873 2.8442 1.2773 0.53368c0.70253 0.29354 1.7739 0.53312 2.3808 0.53241h1.1034l1.1057-0.67419c2.2797-1.3901 4.1501-4.8969 6.2895-11.792l1.221-3.9366 0.52889-4.0569c1.1156-8.5578 1.6069-14.17 2.177-24.871 0.11371-2.1343 0.36354-4.3966 0.55516-5.0272l0.34841-1.1467 0.76634-0.15565c0.42149-0.0856 1.7734-0.25385 3.0042-0.37387l2.2379-0.21823-0.23719 6.2831c-0.52778 13.981-1.7502 25.081-3.5278 32.036-1.4026 5.4873-2.1586 7.6095-4.1956 11.779l-1.1012 2.254-1.8231 1.9952-1.8231 1.9951-4.1149 2.085-5.2917-0.0296-1.9403-0.89895c-1.919-0.88911-4.0411-2.4988-9.3148-7.0657-5.2539-4.5498-11.412-8.2047-17.32-10.28-9.1032-3.1975-15.707-4.5989-24.296-5.1559l-4.4599-0.28925-9.6684 0.62895-3.5421 0.71624c-1.9482 0.39408-5.4471 1.3502-7.7755 2.1249l-4.2333 1.4085-4.2333 2.0683c-3.4555 1.6883-10.38 5.8782-11.112 6.7238-0.09701 0.11204-1.1289 0.93433-2.2931 1.8274-1.1642 0.89302-3.1485 2.5234-4.4097 3.6232l-2.2931 1.9996-4.9389 2.4269-4.2333 0.31835zm149.5 0.12954c-0.38806-0.10605-1.4018-0.50716-2.2527-0.8914l-1.5471-0.69861-1.6781-1.5697-1.6781-1.5697-0.82357-1.8393-0.82356-1.8393-0.12777-10.504-0.12777-10.504 11.528 0.1942 0.1882 18.521h0.33451c0.18398 0 0.51412-0.33564 0.73365-0.74581l0.39915-0.74584 0.0542-8.5146 0.0542-8.5146 11.045-0.194 0.26071 3.4484 0.2607 3.4484-0.20821 7.0561-0.20817 7.0561-0.70253 1.5869c-0.38639 0.8728-1.2747 2.255-1.974 3.0714l-1.2715 1.4845-4.6434 2.2859-3.0434 0.0854c-1.6738 0.047-3.3609 0-3.7489-0.10735zm-208.61-1.0415c-2.3035-0.55295-3.5518-1.2775-5.4863-3.1847l-1.6756-1.6519-1.8492-3.5882-0.0112-2.4694-0.0112-2.4694 1.5221-3.7042c0.83717-2.0373 1.6654-4.0217 1.8405-4.4097 0.17509-0.38805 0.79982-2.0549 1.3883-3.7042 0.58846-1.6492 1.2635-3.4414 1.5-3.9826l0.43008-0.98396 0.8449-0.21365 0.84489-0.21364 4.3074 1.4218 0.50598 0.88309 0.50597 0.88309-0.39709 2.4258c-0.21841 1.3342-0.65204 4.0133-0.96363 5.9536-0.31159 1.9403-0.74276 4.4991-0.95815 5.6863l-0.39161 2.1585 0.51622 1.3274 0.63184-0.77417 0.63183-0.77414 0.25031-2.5772c0.13767-1.4175 0.38535-3.2916 0.5504-4.1647 0.16505-0.87312 0.5053-3.3287 0.75613-5.4568l0.45604-3.8693 0.66786-0.66787 0.66786-0.66786 8.086 0.29529 0.35273 0.509 0.35272 0.50901-0.19623 8.1139c-0.10793 4.4626-0.35717 9.1882-0.55387 10.501l-0.35764 2.3874-0.84069 1.3317c-2.6745 4.2366-8.5865 6.4202-13.918 5.1405zm234.71 0.0261c-2.2659-0.5152-3.7447-1.2925-5.5454-2.9148l-1.4462-1.303-0.90798-1.9403-0.90794-1.9403-0.18235-9.4617-0.18232-9.4617 0.25323-0.68064 0.25322-0.68064h8.7861l0.20634 0.97014c0.31838 1.4967 1.1565 7.0012 2.0009 13.141 0.2268 1.6492 0.55792 3.2809 0.73579 3.6258l0.32339 0.62724 0.3351-0.20708 0.33507-0.20708v-1.6043c0-0.88237-0.2413-3.0558-0.53622-4.8299-0.93091-5.6-1.1967-7.3992-1.4217-9.6244l-0.2189-2.1655 0.37176-0.22978c0.36071-0.22291 5.2582-1.5879 5.7572-1.6046 0.23672-8e-3 0.66679 0.85202 1.8925 3.784 0.30417 0.72761 0.69346 1.6404 0.86508 2.0285 0.17159 0.38805 1.1991 3.0074 2.2832 5.8208 1.0842 2.8134 2.1236 5.4799 2.31 5.9256 1.0013 2.3954-0.51312 6.8376-3.2714 9.5959-3.081 3.081-7.6572 4.344-12.088 3.3364zm-174.33-7.317c-1.1793-0.66128-1.9874-1.9154-3.4584-5.3674-2.6681-6.2611-4.3951-14.63-5.3142-25.753-0.12827-1.5522-0.38289-3.5223-0.56582-4.3779l-0.33261-1.5557 0.56369-0.56369 0.7414 1.132c4.9098 7.4967 6.359 9.5539 8.0044 11.363l1.9255 2.1167 3.8417 2.3058 5.2364 1.103 5.2917-0.83062 1.9831-1.0495c2.1542-1.14 4.5351-3.2508 7.0928-6.288l1.6313-1.9372 0.2365 0.2365 0.23651 0.23651-0.53854 3.6409c-0.2962 2.0025-0.7285 4.9557-0.96067 6.5627l-0.42213 2.9217-1.2702 1.047c-0.69862 0.57603-1.3945 1.0472-1.5464 1.0472-0.33929 0-6.3324 3.6678-8.0296 4.9142-2.5107 1.8438-5.1684 4.0428-7.068 5.8483-1.0739 1.0207-2.5645 2.2711-3.3124 2.7786l-1.3598 0.9228-0.92091-0.0123c-0.5065-7e-3 -1.2648-0.20531-1.685-0.44097zm116.28-0.55516c-0.8626-0.55475-1.9652-1.4444-2.4503-1.9769-2.635-2.8928-9.758-8.1057-14.924-10.921l-2.9882-1.6288-0.38848-0.96336c-0.21366-0.52986-0.55089-2.3921-0.7494-4.1384s-0.51476-4.2069-0.70276-5.468c-0.18801-1.2612-0.34502-2.4915-0.34892-2.734-0.0136-0.84633 0.88129-0.42669 1.7218 0.80738 0.4658 0.68394 1.79 2.1166 2.9426 3.1837l2.0957 1.9402 3.9926 1.9967 4.7934 0.88895 2.1894-0.42904c4.2927-0.84119 8.3006-3.4861 11.783-7.7763l1.8568-2.2873 1.9823-3.9681 1.9823-3.968 0.3349 0.20697 0.33489 0.20699-0.18071 1.468c-0.0994 0.80741-0.356 3.373-0.57024 5.7014-0.61317 6.6636-3.8649 22.69-5.1871 25.564-0.31547 0.68587-1.0592 1.9374-1.6528 2.7811l-1.0792 1.5341-0.95603 0.49438c-1.3783 0.71275-2.0685 0.62015-3.8324-0.51424zm-197.91-1.1142-1.6053-0.26794-5.5415-3.0772-2.0261-2.7772-1.1249-3.8696 0.3263-4.9949 1.467-2.8613 3.1146-2.8027c1.7131-1.5415 3.2902-2.9614 3.5048-3.1554 0.21459-0.19403 1.6433-1.4854 3.175-2.8698 1.5317-1.3843 3.2403-2.9421 3.797-3.4616l1.0121-0.94466 0.92817 0.80727c2.0804 1.8096 4.2796 3.9894 4.2796 4.2421 0 0.14802-2.3812 3.5847-5.2917 7.6371s-5.2917 7.5488-5.2917 7.7698c0 0.22104 0.21242 0.40188 0.47204 0.40188h0.47203l2.6148-3.7131c1.4381-2.0422 3.7881-5.3759 5.2223-7.4083l2.6075-3.6953h0.66272c0.3645 0 1.2914 0.39688 2.0598 0.88195 0.7684 0.48506 1.5193 0.88547 1.6687 0.88979 0.14938 4e-3 0.66847 0.31324 1.1535 0.6865l0.88194 0.67867-0.44097 0.44238c-0.24254 0.2433-0.44097 0.72813-0.44097 1.0774s-0.15875 0.635-0.35278 0.635-0.35278 0.22332-0.35278 0.49628c0 0.27295-0.48434 1.5826-1.0763 2.9104-0.59197 1.3278-1.4249 3.2079-1.851 4.178-0.42606 0.97014-1.5073 3.272-2.4028 5.1153l-1.6281 3.3514-1.0142 1.0056c-1.2832 1.2723-3.1308 2.2199-4.9204 2.5235-0.76708 0.13018-1.6328 0.2817-1.9239 0.3367-0.29104 0.055-1.2516-0.0205-2.1345-0.16786zm279.77-0.1445c-2.3112-0.64142-3.5224-1.3655-5.1586-3.084-2.0467-2.1496-2.9067-3.7927-5.9712-11.408-1.4827-3.6848-2.7718-6.8843-2.8646-7.11l-0.16866-0.41026 2.5105-1.4662c1.3808-0.80641 2.6516-1.4156 2.824-1.3536 0.17247 0.0619 2.4849 3.1288 5.1388 6.8153 2.6539 3.6865 5.1094 6.9998 5.4566 7.363l0.63137 0.66017 0.38812-0.23989 0.38816-0.23988-0.91507-1.639c-0.50327-0.90147-1.5902-2.5194-2.4153-3.5953-1.9703-2.5692-6.9448-9.6007-7.1258-10.072l-0.14179-0.36948 2.4949-2.2338 2.495-2.2338 0.59944 0.51419c0.91154 0.78196 2.4192 2.0642 5.7147 4.8603 1.6492 1.3993 4.3256 3.8358 5.9475 5.4143l2.9489 2.87 0.65934 1.4111 0.65938 1.4111 8e-3 2.368 8e-3 2.368-1.5144 4.0477-3.2341 3.4575-1.5945 0.80285c-1.4754 0.74288-4.7695 1.6382-5.757 1.5646-0.23298-0.0173-1.138-0.2298-2.0111-0.47212zm-171.1-15.46c0.0038-0.79742 1.0544-7.446 1.5758-9.972 1.2449-6.0311 3.0567-10.014 5.8065-12.763l1.423-1.423 1.5446-0.43246 1.5446-0.43245 2.8591 1.4586 1.2227 1.5077c1.897 2.3392 3.1465 5.1092 4.6583 10.327 0.3373 1.1642 0.89206 2.9898 1.2328 4.0569s0.55454 2.0532 0.47514 2.1912c-0.0794 0.138-0.69616 0.35443-1.3706 0.48096l-1.2262 0.23003-0.50101-0.41579-0.50101-0.4158-0.35648-1.6527c-0.19606-0.90896-0.74493-2.7979-1.2197-4.1977l-0.86323-2.545-2.6729-3.6412-1.177-0.49176-1.177-0.49177-1.0256 0.53037c-1.2884 0.66625-3.3542 3.1626-4.1198 4.9782-0.77202 1.831-1.7899 6.0203-2.2876 9.415l-0.40163 2.7395-0.98322 0.70012c-0.54077 0.38506-1.3159 0.70011-1.7225 0.70011h-0.73929l0.0021-0.44097zm63.463-0.65467-1.0235-1.0956v-0.85951c0-2.0438-1.4791-8-2.9057-11.701l-0.7229-1.8754-2.0433-2.0433-2.5548-0.47929-2.1802 1.1752-1.7439 2.5478-3.3192 9.9586-1.2727-0.0413c-0.69999-0.0227-1.3675-0.13608-1.4834-0.25194-0.11586-0.11585 0.21562-2.161 0.73662-4.5448l0.94727-4.3342 3.12-6.35 3.16-3.6055 1.0548-0.43691 1.0548-0.4369 3.546 1.1778 1.5158 1.686 1.5158 1.686 1.1437 2.3456c2.1417 4.3925 3.518 9.8372 4.1377 16.369l0.20918 2.2049h-1.8686zm-189.06-2.374c-4.687-1.2243-7.4317-3.9719-8.692-8.7012-0.63698-2.3904-0.60083-3.2335 0.25789-6.0137l0.73629-2.3838 3.4846-3.6845 1.4902-0.52912c1.8461-0.65552 4.5787-1.3856 9.604-2.5659 2.1343-0.5013 4.7641-1.1412 5.844-1.4221s2.2358-0.51063 2.5687-0.51063h0.60529l0.19522 0.61736c0.35995 1.1383 1.2628 3.4331 1.6136 4.1016l0.34746 0.66206-0.47187 0.46186c-0.25953 0.25402-3.9644 2.2422-8.233 4.4182l-7.7611 3.9563v0.77564l1.4565 0.2083 15.297-7.8369 0.32573 0.20132c0.17916 0.11072 1.0813 1.2602 2.0048 2.5543l1.679 2.353-1.4172 1.26c-4.9885 4.4351-6.2826 5.5576-9.2916 8.0598-3.7303 3.102-4.558 3.6202-6.35 3.9752-0.6791 0.13452-1.6316 0.33406-2.1167 0.44341l-0.88194 0.19882zm312.54-0.0114c-0.6924-0.14722-1.9787-0.66993-2.8583-1.1616-1.6624-0.92914-14.404-11.839-14.404-12.333 0-0.1547 0.67468-1.314 1.4993-2.5761l1.4993-2.2948 0.6436-0.0126c0.35398-7e-3 3.1321 1.279 6.1736 2.8576 3.0415 1.5786 6.6124 3.4251 7.9354 4.1033l2.4054 1.2331 0.33056-0.33055 0.33052-0.33054-0.65836-0.70666c-0.36209-0.38866-2.0695-1.3262-3.7943-2.0834-1.7248-0.75722-4.0884-1.8802-5.2526-2.4954-1.1642-0.61527-3.1486-1.6509-4.4097-2.3013s-2.3964-1.3277-2.5226-1.505l-0.22959-0.32235 0.62625-1.461c0.34446-0.80354 0.73576-1.9596 0.86964-2.5691 0.13384-0.60945 0.4536-1.2826 0.71053-1.4958l0.46714-0.38771 2.4206 0.55393c1.3313 0.30466 3.0556 0.70052 3.8317 0.87969 0.77612 0.17917 2.3906 0.52996 3.5877 0.77955 1.1971 0.24958 2.2951 0.57284 2.44 0.71836 0.14492 0.14553 0.63817 0.26459 1.0961 0.26459 0.4579 0 2.116 0.43323 3.6847 0.96273l2.8521 0.96273 2.8115 2.8115-0.23322 1.2475c-0.12827 0.68612-0.32068 1.9022-0.42757 2.7024l-0.19434 1.4549 0.95077 1.893c0.52292 1.0411 1.1366 2.0109 1.3638 2.1551l0.413 0.26213-1.2347 2.3432-1.2347 2.3432-1.4111 1.229c-0.77611 0.67596-2.1204 1.5384-2.9874 1.9166l-1.5763 0.68753-2.1279 0.13675c-1.1703 0.0752-2.6944 0.0163-3.3868-0.13091zm-206.04-1.6164c-0.89399-0.24654-2.4374-0.89019-3.4299-1.4304l-1.8044-0.9821-2.1996-2.2285c-6.1917-6.2731-9.3511-14.267-10.561-26.72l-0.44023-4.5319 0.44966-5.1694c0.55263-6.3532 1.5828-11.644 2.861-14.694 1.4681-3.5036 2.3792-5.2488 4.0743-7.8044l1.9006-2.8655 4.4208-4.0929 4.59-2.1494 7.4083-0.0212 5.9972 2.9375 2.9276 2.7229c4.9542 4.6078 9.2063 10.592 13.949 19.632l2.3497 4.4786v0.94272c0 0.91493-4.3822 14.439-4.9082 15.147-0.14406 0.19403-0.53678 1.097-0.87271 2.0067-2.3395 6.3352-9.8655 17.339-14.875 21.748-3.5494 3.1243-7.7242 4.2084-11.838 3.074zm4.8004-12.577c2.1852-0.59532 3.7241-1.3814 5.6444-2.8832l1.7639-1.3795 3.8099-5.0503 1.1305-2.4694c1.9479-4.255 2.7696-7.2883 3.1539-11.642l0.21796-2.4694-0.34409-3.9018-0.34409-3.9018-0.73797-2.8009c-1.3219-5.0171-3.8155-9.3207-7.4369-12.835l-1.3596-1.3195-4.7924-2.3972-6.7028 0.014-4.2333 2.2004-1.7296 1.7111c-5.0293 4.9756-7.3061 10.169-8.7154 19.88l-0.38399 2.6458 0.20367 3.5513 0.20368 3.5512 1.8189 6.2768 1.3015 2.4826c1.3584 2.591 3.6504 5.6554 5.5077 7.3638 3.4 3.1272 8.0939 4.4442 12.024 3.3735zm-4.7625-9.1164-1.9403-1.0042-1.2457-1.3601c-1.6073-1.7549-3.2344-4.4671-3.8847-6.4754l-0.51404-1.5875 0.0128-8.1139 1.3204-2.7145 1.3204-2.7145 1.7006-1.746c1.8466-1.8959 3.5132-2.8629 6.1798-3.5861l1.7146-0.46496 1.8132 0.44949c4.709 1.1674 8.4083 5.373 9.892 11.246 0.31032 1.2284 0.56423 2.8723 0.56423 3.6532 0 1.8927-0.88892 5.2264-2.0935 7.8513l-0.9807 2.1371-3.4522 3.5311-3.7693 1.937-4.6974-0.034zm4.2333-0.86388v-0.49092l-0.94325-0.23675c-2.3063-0.57884-5.7598-4.0749-6.3152-6.393-0.13593-0.56729-0.42222-1.2525-0.6362-1.5227l-0.38906-0.49126 0.01877-4.0948 0.01877-4.0949 1.0672-2.3038c1.3505-2.9152 2.8432-4.616 5.27-6.0044l1.9161-1.0963-0.20077-0.32485c-0.29843-0.48287-1.1911-0.40022-3.1404 0.29076l-1.7465 0.61911-2.9874 2.8222-1.0813 2.1851c-0.59472 1.2018-1.0813 2.4004-1.0813 2.6635s-0.1906 0.66899-0.42354 0.90194l-0.42354 0.42354-0.0068 3.6158-0.0068 3.6158 0.67649 1.7639c1.5206 3.9648 3.5686 6.761 5.8286 7.9579l1.2347 0.65395 3.3514 0.0312v-0.49092zm93.662 22.574c-3.821-1.2116-6.8351-3.663-11.103-9.0304-4.1357-5.201-7.2245-10.569-9.9462-17.286-0.58965-1.4552-1.2751-3.1221-1.5232-3.7042s-0.64231-1.6933-0.87599-2.4694c-0.23367-0.77611-0.64929-1.9114-0.9236-2.5228-0.27431-0.61141-0.49874-1.3337-0.49874-1.6051s-0.13199-0.64431-0.29331-0.82863c-0.44263-0.50577-1.1178-3.1001-1.1178-4.2951v-1.0559l0.98492-1.9018c1.7238-3.3286 5.0459-9.2054 7.0577-12.485 4.8345-7.8816 10.067-12.588 16.546-14.884l1.6932-0.59985 6.35-0.0386 1.5875 0.64959c2.014 0.82412 5.4189 3.2647 7.185 5.1502 1.9103 2.0395 4.198 6.1952 6.0316 10.957 1.4912 3.8726 2.0178 5.657 3.071 10.407l0.46934 2.1167-0.1142 15.229-0.77237 3.6746c-0.4248 2.021-1.0116 4.389-1.304 5.2621-0.87864 2.6234-3.1314 7.057-5.1088 10.054l-1.8619 2.8222-4.3476 4.2912-1.8886 0.9113c-3.5536 1.7147-6.454 2.0835-9.2969 1.182zm6.8808-12.759 2.434-0.5536 4.0907-2.6494 1.8711-2.0515c2.664-2.9208 5.0303-7.6486 6.2748-12.536l0.67362-2.6458-0.0345-5.8208-0.0345-5.8208-0.92882-3.7042-0.92882-3.7042-1.474-2.9986-1.474-2.9986-5.0032-4.9649-4.9067-2.3823-5.027-0.32261-1.9123 0.5575c-1.0518 0.30663-2.653 1.0282-3.5583 1.6034l-1.646 1.0459-3.994 4.8157-1.5995 3.2715c-1.7037 3.4846-1.9111 4.1225-2.9505 9.0758l-0.66629 3.175-0.0107 3.2242-0.0106 3.2242 0.55081 2.9494c0.78603 4.2089 1.39 6.0942 2.9818 9.3084l1.4022 2.8312 1.9153 2.3074 1.9153 2.3075 1.5264 1.0326c1.9461 1.3165 3.2068 1.8876 5.4069 2.4492 2.3723 0.60561 2.3424 0.60576 5.1169-0.0253zm-9.1805-8.9528-1.9469-1.0058-3.4012-3.6362-2.5602-5.4308v-8.1139l2.5435-5.2917 1.586-1.7735 1.586-1.7735 3.787-2.0975 5.6444 0.0602 1.6336 0.94671c0.89852 0.5207 2.3545 1.7174 3.2356 2.6593l1.6019 1.7126 2.0649 4.1462 0.45939 2.7529 0.45938 2.7529-0.42526 2.5388c-0.52395 3.1279-1.1886 4.7859-2.9437 7.3429l-1.3603 1.9819-1.4808 1.0479c-0.81446 0.57633-2.0212 1.3116-2.6816 1.634l-1.2007 0.58615-4.6541-0.034zm8.7364-1.0715c1.5742-0.82053 4.0041-3.2593 4.7506-4.768 0.288-0.58208 0.80766-1.6477 1.1548-2.368l0.63114-1.3097 0.0796-7.964-0.70555-2.2363-0.70556-2.2363-3.175-3.9285-1.9403-0.99531c-1.0672-0.54742-2.2975-0.99874-2.734-1.0029l-0.79375-8e-3v0.32401c0 0.1782 0.54621 0.66158 1.2138 1.0742 0.66759 0.41259 1.9773 1.587 2.9104 2.6099l1.6966 1.8597 0.70556 1.9168 0.70555 1.9168v8.1139l-0.70555 1.9323-0.70556 1.9323-4.2333 4.3309-2.2931 0.50361v1.0023h2.8005zm-163.78 21.82-4.5861-0.29758-2.2931-0.56344c-4.0926-1.0056-5.6273-1.6544-9.1722-3.8772-3.984-2.4983-6.6974-5.3227-10.032-10.442-1.0374-1.5929-3.4468-7.5521-4.1131-10.173l-0.49327-1.9403-2e-3 -9.8778 0.47165-1.7639c0.53161-1.9881 1.1792-3.7295 2.3979-6.4478 0.45906-1.0239 0.83465-1.9329 0.83465-2.02 0-0.0871 0.94201-1.4752 2.0933-3.0848 3.2612-4.5593 6.5833-7.4618 11.136-9.7297 3.6642-1.8254 6.5787-2.7598 10.12-3.2446l2.8637-0.39209 31.018-0.012 0.56978 0.58998 0.2078 7.5847c0.68623 25.047 0.91923 32.408 1.2563 39.688 0.20666 4.4626 0.46546 8.352 0.5751 8.643 0.10964 0.29104 0.28243 1.9192 0.38398 3.618l0.18463 3.0889-0.43744 0.52709-0.43744 0.52708-13.98-0.0508c-7.6891-0.028-16.044-0.18477-18.566-0.34844zm8.9375-8.8784c1.4231-0.49664 3.4828-1.4302 4.5771-2.0745l1.9896-1.1715 5.3168-5.2917 1.2245-2.2931c1.5233-2.8527 1.9836-4.1085 2.6504-7.2319l0.52723-2.4694v-4.9389l-0.52723-2.4694c-1.881-8.8103-7.5112-15.214-16.045-18.249l-1.9482-0.69283-8.1961-0.37796-1.8992 0.44022c-2.7542 0.63841-6.2072 2.0518-8.3681 3.4254-3.8232 2.4302-7.594 7.0203-9.126 11.109-1.4077 3.757-1.5562 4.3997-1.7373 7.5199l-0.18431 3.175 0.35982 2.1167c0.8792 5.1721 1.9826 7.7915 4.8537 11.523 2.7823 3.6158 7.1786 6.7433 11.416 8.121l2.2984 0.74736 3.175 0.21138c4.0663 0.27073 6.4235-5e-3 9.643-1.1287zm-11.936-0.80144c0-0.4203 2.9511-3.6793 3.3317-3.6793 0.42954 0 3.7239 3.2096 3.7239 3.6281v0.25247h-3.5278c-1.9403 0-3.5278-0.0906-3.5278-0.20129zm-0.67012-10.782-3.6412-3.9276 7.31-6.9261 1.0583-0.018 7.0556 7.0248-3.8745 3.8874c-2.131 2.1381-3.9628 3.8875-4.0707 3.8875-0.10789 0-1.8347-1.7674-3.8374-3.9276zm20.72 3.2416c-0.06467-0.18329-1.3479-1.592-2.8516-3.1305-1.5037-1.5385-2.734-2.9459-2.734-3.1275 0-0.34732 7.1601-7.5198 7.5069-7.5198 0.11045 0 1.086 1.0664 2.1678 2.3698l1.967 2.3698v0.63364c0 0.3485-0.13731 0.9093-0.30513 1.2462-0.16782 0.33692-0.70661 1.4857-1.1973 2.5528-0.49069 1.0672-1.3862 2.615-1.9901 3.4396l-1.098 1.4993h-0.67395c-0.37067 0-0.72686-0.14996-0.79154-0.33326zm-34.945-2.2244c-0.69011-1.0186-1.5896-2.6263-1.9989-3.5726l-0.74418-1.7205v-2.9931l1.4533-1.8253c0.79933-1.0039 1.5534-1.7787 1.6757-1.7218 0.53754 0.25025 7.1015 7.2371 7.1015 7.559 0 0.4739-5.4244 6.1264-5.8792 6.1264-0.19444 0-0.91816-0.83344-1.6083-1.8521zm32.362-17.905-3.8772-3.8709 3.1643-3.179c1.7404-1.7485 3.3537-3.179 3.5852-3.179 1.1797 0 4.7511 5.5693 5.2389 8.1695l0.2339 1.2468-1.9914 2.3474c-1.0953 1.2911-2.1006 2.3449-2.2339 2.3418-0.13337-3e-3 -1.9872-1.7475-4.1197-3.8765zm-32.835 2.752c-0.56912-0.44227-1.3073-1.123-1.6404-1.5127l-0.60563-0.70859-0.0118-0.98993-0.0118-0.98992 0.99688-2.0087c1.3141-2.6479 3.9292-6.7712 4.2944-6.7712 0.15903 0 1.2164 0.97903 2.3496 2.1756 1.1333 1.1966 2.3383 2.4666 2.6778 2.8222 0.33955 0.35563 0.61736 0.8356 0.61736 1.0666 0 0.46583-6.6584 7.4579-7.2555 7.6191-0.20698 0.0559-0.84198-0.26025-1.4111-0.70252zm15.444-3.3848c-1.7871-1.7122-3.2493-3.2723-3.2493-3.4669 0-0.51123 6.0456-6.4821 6.5633-6.4821 0.39678 0 6.1803 6.0136 6.4129 6.668 0.0939 0.26424-5.6691 6.1016-6.2209 6.3012-0.14117 0.0511-1.7189-1.308-3.506-3.0202zm1.7511-14.999c-0.42188-0.44907-0.76705-0.92532-0.76705-1.0583 0-0.13302 1.0319-0.24185 2.2931-0.24185h2.293v0.31793c0 0.32228-2.2826 1.7987-2.7809 1.7987-0.14912 0-0.61629-0.36742-1.0382-0.81649zm195.2 53.047-3.5278-0.19626 0.0219-1.5875c0.012-0.87313 0.21833-6.6511 0.45844-12.84 0.24011-6.1888 0.50155-13.015 0.58097-15.169 0.34997-9.4925 0.88415-23.047 1.1033-27.996l0.23833-5.3823 0.89469-0.74253 31.275-0.0512 1.5875 0.25772c0.87313 0.14175 2.6988 0.55756 4.057 0.92402l2.4694 0.66631 2.8222 1.448c7.709 3.9552 12.975 9.9729 16.068 18.361l1.0639 2.8856 0.39035 2.6799c0.49015 3.365 0.51001 4.3159 0.18101 8.6674l-0.26599 3.518-0.52458 1.5973c-0.70066 2.1335-0.90061 2.6037-2.3047 5.4199l-1.2024 2.4115-4.4373 5.5563-5.7932 4.6553-3.175 1.5745c-1.7462 0.86596-4.2862 1.8927-5.6444 2.2816l-2.4694 0.70711-10.583 0.6685-9.8778-0.0591c-5.4328-0.0325-11.465-0.14743-13.406-0.25538zm33.816-8.3358c1.1921-0.30517 3.2788-1.0923 4.637-1.7492l2.4694-1.1943 4.1152-3.3732 1.6873-2.2969c2.9609-4.0307 3.985-6.2443 4.8164-10.411l0.49276-2.4694-0.024-5.9972-0.47865-2.002c-0.97218-4.0665-3.8577-8.9617-6.9058-11.715-3.7055-3.3478-7.5873-5.1922-12.864-6.1124l-3.186-0.55561-7.0498 0.86336-2.6638 1.0273c-5.9393 2.2904-10.088 6.1252-12.727 11.764l-1.0345 2.2107-0.55804 2.6126-0.55805 2.6126 0.18791 4.5861 0.1879 4.5861 0.55506 1.5875c0.30528 0.87313 1.1285 2.7316 1.8293 4.1299l1.2743 2.5424 1.9124 2.1133 1.9124 2.1133 2.4806 1.6491c2.4692 1.6415 4.7006 2.6578 7.7245 3.5179l1.5875 0.45158 8.012 0.063 2.1676-0.55484zm-8.5922-1.4884c0-0.42946 2.9726-3.2484 3.4254-3.2484 0.2201 0 0.96333 0.65795 1.6516 1.4621l1.2515 1.4621-0.18648 0.30178-0.18651 0.30178h-5.9556zm-0.0882-10.453c-1.8918-1.9746-3.4396-3.7975-3.4396-4.0509 0-0.48686 5.9032-7.0887 6.3386-7.0887 0.34939 0 1.451 1.0444 5.0716 4.8082l3.0981 3.2206-3.3986 3.3057c-1.8693 1.8182-3.5858 3.3259-3.8146 3.3505-0.22874 0.0246-1.9637-1.5708-3.8555-3.5455zm-15.769 1.2915c-0.47516-0.7252-1.388-2.1823-2.0285-3.2381l-1.1646-1.9195v-2.2706l2.1696-2.5896 2.1696-2.5896 0.38802 0.10556c0.65655 0.17863 6.5266 6.5642 6.5447 7.1194l0.0169 0.52219-6.1589 6.1876-1.073-8e-3 -0.86392-1.3186zm33-1.9764c-1.4734-1.623-2.679-3.0945-2.679-3.2702s1.4684-1.7684 3.2632-3.5395l3.2632-3.2202 0.52917 0.22854c1.2585 0.54353 2.544 1.6425 3.0374 2.5967l0.53196 1.0287-0.59524 1.8294c-0.32738 1.0062-1.2464 3.0597-2.0423 4.5634l-1.4471 2.734h-1.1824zm-0.38594-16.851-3.8806-3.8466 2.9986-2.8137c1.6492-1.5475 3.118-2.8149 3.2639-2.8163 0.4293-4e-3 3.4742 4.2832 4.1323 5.8183 0.33267 0.77611 0.71251 1.9612 0.84403 2.6335l0.23918 1.2224-1.284 1.8644-1.2841 1.8644-1.1488-0.0798zm-33.551 1.5824c-0.95-1.0952-1.776-2.193-1.8356-2.4396-0.1174-0.48593 1.2303-3.2219 3.378-6.858l1.3545-2.293h1.1165l3.0404 3.2298 3.0404 3.2298-0.20603 0.47434c-0.26179 0.60276-7.3789 6.648-7.8267 6.648-0.18384 0-1.1115-0.89607-2.0615-1.9913zm16.698-1.8081-3.0795-3.0938v-1.0591l6.3504-6.321 3.353 3.339c1.8441 1.8364 3.3125 3.4409 3.263 3.5654-0.20743 0.5222-6.1789 6.6632-6.4792 6.6632-0.18052 0-1.714-1.3922-3.4077-3.0938zm2.0672-14.572c-0.50232-0.59697-0.91331-1.232-0.91331-1.4111v-0.32571h4.9389v0.28357c0 0.42341-2.2659 2.5386-2.7195 2.5386-0.21604 0-0.8038-0.48843-1.3061-1.0854zm-126.72 34.263c-2.3523-1.7299-2.695-3.2599-1.7175-7.6678 1.3243-5.9716 2.1958-8.7778 3.5646-11.479l0.89998-1.776 3.2928-3.2765 1.9403-0.92354c1.0672-0.50794 2.5753-1.1372 3.3514-1.3983l1.4111-0.47475 8.8194 0.0818 2.2471 0.91547c1.2359 0.5035 3.0089 1.4043 3.94 2.0018l1.6928 1.0863 1.3953 1.8338c2.3292 3.0611 3.3922 5.4124 4.657 10.3 0.20081 0.77611 0.46486 3.0885 0.58677 5.1387l0.22167 3.7276-3.2675 2.6775-0.94277-0.36178-0.41244-3.8271c-0.74113-6.8769-1.3172-9.3104-3.1032-13.107l-0.8804-1.8717-2.7372-2.7372-1.3458-0.39098c-0.7402-0.21504-3.1049-0.48575-5.255-0.60157l-3.9091-0.21057-3.8234 0.88593-1.6976 1.0685-1.6976 1.0684-1.0333 1.8013c-1.1097 1.9344-1.7065 3.7944-2.5591 7.9749-1.0099 4.9523-1.3027 6.9196-1.3027 8.7525v1.8308h-0.45967c-0.25282 0-1.097-0.46873-1.876-1.0416zm-149.25-2.9935-1.8325-0.85321-3.0377-2.8137-0.88194-1.7052c-0.48507-0.93788-1.001-1.7582-1.1465-1.8228l-0.26458-0.11759v-6.234l0.49855-0.99873c0.2742-0.5493 0.79014-1.6104 1.1465-2.358l0.64798-1.3592 3.7426-3.4383 1.4801-0.40843c2.7939-0.77099 5.5017-0.4584 12.593 1.4537 2.2313 0.6017 5.3537 1.4132 6.9387 1.8034l2.8817 0.70943 0.20494 0.53405c0.11271 0.29373 0.10239 1.868-0.0229 3.4984l-0.22786 2.9644-18.418 0.188 0.1758 0.70556 17.596 0.1884 0.19252 0.61135c0.31079 0.98695 0.84036 5.1758 0.68728 5.4363-0.18807 0.32008-1.8395 0.80469-5.2458 1.5393-1.5522 0.33478-5.0574 1.2226-7.7892 1.9729l-4.967 1.3642-3.1187-8e-3 -1.8325-0.85321zm325.33 0.5081c-0.64653-0.2788-1.6087-0.55182-6.1736-1.7518-0.87312-0.22952-2.3019-0.55398-3.175-0.72102-3.6757-0.7032-4.9768-1.0643-5.8154-1.6138-1.0263-0.67242-1.0547-0.88815-0.36834-2.7933 0.27958-0.77611 0.51534-1.927 0.52384-2.5576l0.0155-1.1465h18.05l-0.14682-0.44097-0.14683-0.44097-17.692-0.1884-0.22712-1.8461c-0.12496-1.0154-0.31514-2.5135-0.4227-3.3292l-0.19554-1.4831 1.0077-0.22387c0.55428-0.12312 1.7222-0.42842 2.5953-0.67843 2.7877-0.79826 4.357-1.2173 6.5264-1.7428 1.1642-0.282 3.0796-0.76198 4.2565-1.0666 1.1769-0.30465 2.4124-0.55391 2.7454-0.55391h0.60562l4.8508 10.054 0.59517 2.6458c0.32731 1.4552 0.72285 3.0427 0.87898 3.5278 0.15611 0.48507 0.26018 1.8344 0.23125 2.9986l-0.0526 2.1167-3.1481 1.5875-2.3065-0.0239c-1.2686-0.0131-2.624-0.16079-3.0121-0.32813zm-235.41-8.1084-1.4524-1.0521-1.1429-3.9313 0.41758-1.7407c0.6715-2.7992 2.5449-4.5711 4.8329-4.5711h0.991l0.91129 1.4592-0.22949 1.5304-0.22949 1.5303-1.7349 1.5085 2.1579 2.0158v0.93431c0 1.1808-0.85629 2.8629-1.6033 3.1496-0.98135 0.37658-1.4222 0.25074-2.9182-0.83295zm219.45-11.951c-0.19841-0.12453-0.83612-1.4527-1.4172-2.9515l-1.0564-2.725 0.39977-0.31876c0.21985-0.17532 2.7016-1.5113 5.515-2.9689 8.8343-4.577 10.045-5.226 10.389-5.5687l0.33514-0.3338-0.82635-0.82633-16.255 8.2723-0.34424-0.21276c-0.54018-0.33385-3.5299-4.6314-3.5299-5.0741 0-0.2184 0.66886-0.99199 1.4864-1.7191 0.81749-0.7271 3.89-3.5564 6.8278-6.2873l5.3415-4.9653 1.9875-0.80667 1.9875-0.80667 0.55076 0.21134 0.55072 0.21134 0.89221 2.0174c1.2659 2.8624 2.4443 7.7597 2.9546 12.279 0.24102 2.1343 0.65684 4.7217 0.92407 5.7499 0.26723 1.0281 0.48588 2.0033 0.48588 2.1671 0 0.33413-0.72542 0.67597-2.2931 1.0806-0.58208 0.15022-2.9633 0.79067-5.2917 1.4232-2.3283 0.63254-4.8683 1.2689-5.6444 1.4141-0.77611 0.14524-1.9058 0.42182-2.5104 0.61462l-1.0993 0.35056zm-289.19-0.63819c-2.0631-0.44896-5.4427-1.2267-6.5264-1.5019-0.6791-0.17247-2.4254-0.57991-3.8806-0.90542s-3.4741-0.99161-4.4864-1.4802l-1.8405-0.88838-1.4541-1.5775c-0.79975-0.86763-1.7971-2.3198-2.2164-3.227l-0.76231-1.6495 0.0594-6.35 1.6161-3.4757 1.5727-1.6813c1.7767-1.8994 3.347-2.8184 5.9533-3.484l1.7931-0.45794 5.0304 1.136 1.3361 0.84613c1.2146 0.76922 6.9932 5.7542 12.206 10.53l2.0507 1.8787-1.8229 2.7592c-1.0026 1.5176-2.0465 2.845-2.3198 2.9499l-0.49688 0.19066-0.44634-0.37043c-0.24549-0.20373-2.4837-1.4222-4.9738-2.7076-2.4901-1.2854-5.721-2.9621-7.1798-3.726-1.4588-0.76384-2.883-1.3888-3.1649-1.3888h-0.51263l0.14057 0.42169c0.0773 0.23193 1.2415 1.0008 2.587 1.7086 1.3456 0.7078 3.4784 1.8463 4.7395 2.5301 1.2612 0.68376 3.563 1.9215 5.1153 2.7505 1.5522 0.82903 2.9985 1.6449 3.2138 1.813l0.39162 0.30561-0.16916 0.88492c-0.093 0.4867-0.30896 0.97131-0.47982 1.0769s-0.31065 0.47872-0.31065 0.82916-0.32902 1.0554-0.73116 1.5667l-0.73116 0.92952-1.2973-0.0409c-0.71352-0.0225-1.6148-0.11002-2.0029-0.19447zm217.87-0.75914c-0.21281-0.39764-0.38693-1.3443-0.38693-2.1038v-1.3808l2.8909-1.1356-0.15279-0.45586-0.1528-0.45585-1.2865-0.0115c-1.6205-0.0145-1.889-0.30263-2.1887-2.3489l-0.24234-1.6548 1.8896-1.8896 1.2887 0.20913c1.6475 0.26735 2.9102 1.2061 3.6696 2.7282l0.60042 1.2035v3.8806l-0.60042 1.2035c-0.75821 1.5198-2.0216 2.4608-3.6614 2.7269l-1.2805 0.2078-0.38693-0.72298zm-90.103-1.406c-0.52137-0.54419-0.94795-1.1715-0.94795-1.394v-0.40458l6.0837-3.0146 4.7452-0.26813 1.0494 0.54269c0.57719 0.29848 1.2658 0.80338 1.5302 1.122l0.48079 0.57931-0.50648 0.32119c-0.73968 0.46907-10.163 3.5056-10.878 3.5056h-0.60853zm16.221-5.9654c-0.3144-1.3166-1.0578-4.4575-1.6519-6.9798-0.59416-2.5224-1.4602-6.1736-1.9244-8.1139-0.46428-1.9403-1.2638-5.3534-1.7768-7.5847-0.51295-2.2313-1.1905-5.0888-1.5057-6.35l-0.57308-2.293 0.01185-3.2356 0.01189-3.2356 0.60696-0.92633c0.33383-0.50949 1.1143-1.2357 1.7343-1.6137l1.1274-0.68739 2.6347-2e-3 2.3042 2.0581 0.26622 16.698c0.14642 9.1839 0.22579 18.431 0.17638 20.55l-0.0898 3.8518-0.78048 0.25886-0.57164-2.3937zm5.1832 1.8415c0.20595-0.53669 1.653-6.5132 2.3494-9.7033 0.82941-3.7994 6.0622-23.83 6.4975-24.872 0.28354-0.6786 0.94363-1.6306 1.4669-2.1155l0.95135-0.88168h2.7867l0.99132 0.58558 0.99132 0.58559 1.4776 2.6291v2.4648l-1.1614 2.2473c-0.63878 1.236-2.7255 4.9461-4.6371 8.2446s-3.7728 6.5226-4.136 7.1647c-0.36318 0.64213-1.26 2.2296-1.9929 3.5278-1.2333 2.1844-2.117 4.1822-3.853 8.7103l-0.67625 1.7639-1.2852 0.24795zm13.27-1.2543-3.3423-1.7217-1.8967-2.1035-0.37258-1.3417c-0.68125-2.4532-0.24097-4.5045 1.3304-6.198l0.90533-0.97577 2.653-0.71438 0.98335 0.23503c1.1654 0.27854 9.1736 4.2767 9.4447 4.7154 0.19357 0.3132-0.87025 2.2047-2.1134 3.7577l-0.70756 0.88393-6.346-3.5153-0.12936 0.57884-0.12935 0.57884 0.59262 0.36156c0.32594 0.19886 1.5748 0.99796 2.7752 1.7758l2.1826 1.4142 0.10389 0.72312 0.10388 0.72313-0.7486 0.9517c-0.41173 0.52343-1.0182 1.096-1.3477 1.2723l-0.59907 0.32062zm-88.102-6.208-1.8572-0.92485-1.0339-1.1776-1.0339-1.1776-0.36423-1.3191-0.36423-1.3192 0.2182-1.4245c0.27368-1.7867 1.1987-3.6488 2.343-4.7166l0.8816-0.82267 2.7933-0.37466 1.2698 0.60257 1.2698 0.60258 1.4251 1.5461c0.78382 0.85034 1.4251 1.7835 1.4251 2.0737s-0.34913 1.2462-0.77585 2.1246l-0.77585 1.5969h-0.4963c-0.27296 0-1.0748-0.45328-1.7818-1.0073-0.70702-0.55401-1.6312-1.1884-2.0537-1.4098l-0.7682-0.40256-0.55472 0.21287c-0.94087 0.36105-0.64225 0.77141 1.9147 2.6312 1.3582 0.98787 2.4694 1.9379 2.4694 2.1112 0 0.65212-1.5671 3.5087-1.9224 3.5043-0.20387-2e-3 -1.2064-0.42076-2.2279-0.92942zm-66.405-2.2658c-1.6492-1.5642-4.6916-4.4961-6.7608-6.5152l-3.7622-3.6712-0.91213-1.9281-0.91213-1.9281v-5.6688l0.90055-1.902c1.0232-2.1612 2.334-3.6202 4.6019-5.1224l1.5688-1.0392 4.3992-0.7661 3.8753 0.63428 3.79 1.9707 1.243 1.487c1.2589 1.5061 2.0268 3.1081 3.0225 6.3058 0.75858 2.4361 2.5553 7.3227 3.3681 9.1602 0.37126 0.83929 0.77724 1.9914 0.90217 2.5602l0.22716 1.0342-5.3719 2.6549-1.6556-0.41554-2.6641-3.7928c-1.4652-2.0861-2.7934-3.9516-2.9514-4.1456-0.15804-0.19403-1.0541-1.4994-1.9912-2.9008-0.93712-1.4014-1.9168-2.7248-2.1771-2.9408l-0.47319-0.39271-0.35294 0.21813-0.35295 0.21813 1.1312 1.6558c0.62219 0.91067 1.3307 1.8704 1.5745 2.1328 0.2438 0.26237 0.62539 0.82184 0.84796 1.2433 0.22258 0.42143 1.9188 2.8906 3.7694 5.487l3.3647 4.7207-2.3831 2.2466c-1.3107 1.2356-2.492 2.246-2.6252 2.2452-0.13313-7.1e-4 -1.5914-1.2813-3.2407-2.8455zm270.65 0.46578-2.209-2.0285 2.327-3.3514c4.4112-6.3531 7.5741-11.195 7.5741-11.594 0-0.92365-0.81862-0.28324-2.194 1.7164-0.33358 0.485-1.0866 1.5168-1.6734 2.2929-0.58674 0.77611-1.5044 2.048-2.0393 2.8264-1.1001 1.601-5.3756 7.2302-5.4862 7.2233-0.074-5e-3 -3.049-1.5145-5.0893-2.583l-1.1363-0.59512 0.37895-0.96634c0.84882-2.1645 3.2122-8.7751 3.3724-9.433 0.0945-0.38805 0.37906-1.1818 0.63236-1.7639 0.25333-0.58208 0.62216-1.4552 0.81968-1.9403 0.19752-0.48507 0.85534-1.9138 1.4618-3.175l1.1027-2.2931 1.0782-0.84825c0.59298-0.46654 2.0553-1.2477 3.2496-1.736l2.1714-0.88772 4.6165-0.0558 0.93116 0.60991c0.9761 0.63933 4.7441 5.0284 7.2621 8.459l1.4778 2.0134v2.8448l-0.66392 1.7473c-0.88971 2.3415-1.3869 2.9214-6.2598 7.3004-2.3038 2.0703-5.2206 4.7725-6.4818 6.0047-1.2612 1.2322-2.4552 2.2406-2.6534 2.2408-0.1982 2.2e-4 -1.3544-0.91241-2.5693-2.0281zm-160.73-3.264c-0.6973-0.97059-1.2666-1.9628-1.265-2.2049 0.0014-0.24208 1.2703-1.472 2.8194-2.7332l2.8166-2.2931 0.0056-1.2347h-1.2615l-2.866 2.2931c-1.5763 1.2612-2.9474 2.293-3.0469 2.293-0.34478 0-3.0486-3.0004-3.0524-3.3872-0.0021-0.21375 1.0508-1.7616 2.3397-3.4398l2.3435-3.0512 3.195-2.1163h2.9734l0.83904 0.44097c0.46147 0.24254 1.3521 0.80854 1.9792 1.2578l1.1402 0.8168 1.932 3.2968 0.0055 2.1209 0.0055 2.1209-1.6691 2.6848-3.6516 2.4499c-2.0084 1.3475-3.8008 2.45-3.983 2.45-0.1823 0-0.90196-0.79412-1.5993-1.7647zm146.9-3.774c-0.87313-0.30134-1.9844-0.75267-2.4694-1.003l-0.88194-0.45507-0.44665-1.3093-0.44669-1.3093 0.32092-0.39579c0.1765-0.21768 0.50571-1.9833 0.73159-3.9236 0.22589-1.9403 0.54868-4.4009 0.71738-5.468 0.16866-1.0672 0.31824-2.7644 0.33242-3.7715l0.0257-1.8313-0.37624-0.23253c-0.5685-0.35134-0.69402-0.0783-1.0839 2.3585-0.30755 1.9218-0.99889 10.327-1.026 12.473-5e-3 0.38806-0.1676 1.2993-0.36153 2.0249l-0.35263 1.3194-0.8623 0.21643c-0.47427 0.11903-2.2092 0.16032-3.8555 0.0917l-2.9931-0.12468-0.62982-0.63072-0.62981-0.63073v-18.847l0.97793-1.9908c0.53788-1.095 1.304-2.4053 1.7025-2.9119 0.97349-1.2376 3.4989-2.9414 5.3414-3.6036l1.5032-0.54026 5.047 2e-3 0.65148 0.32518c0.35835 0.17884 1.2367 0.60618 1.9518 0.94962 3.3868 1.6265 6.6182 6.577 6.632 10.16l5e-3 1.3324-0.9337 2.901c-0.51354 1.5956-1.1485 3.4012-1.4111 4.0126-0.26257 0.61141-0.47741 1.2882-0.47741 1.5041 0 0.21584-0.13939 0.6681-0.30971 1.005-0.81915 1.6202-1.4542 3.3474-1.4542 3.9551 0 0.37002-0.14655 0.76333-0.32565 0.87402-0.17907 0.11069-0.42707 0.66314-0.55108 1.2277-0.22493 1.0242-1.6599 2.8693-2.1932 2.8201-0.15476-0.0143-0.99579-0.27253-1.8689-0.57387zm-239.92-0.10463-0.56492-0.33023-0.61488-1.6875c-0.77213-2.119-1.5416-3.9759-1.9765-4.7695-0.18463-0.33692-0.33569-0.84747-0.33569-1.1346s-0.26013-1.1227-0.57806-1.8569c-0.88374-2.0408-1.0501-2.5102-2.0696-5.8396l-0.94726-3.0936 0.86436-3.6905 3.0655-4.6542 1.3318-0.91962c0.7325-0.50579 2.1008-1.2585 3.0406-1.6728l1.7087-0.75316 4.6964 0.014 1.5032 0.53864c4.1854 1.4998 6.6489 4.445 7.853 9.3885l0.47211 1.9384 0.0496 16.933-9.3301 0.1968-0.19149-0.80392c-0.10535-0.44216-0.34954-2.1533-0.54267-3.8025-0.35117-2.9988-1.1816-8.8817-1.6064-11.38-0.12401-0.72941-0.36668-1.4135-0.53927-1.5201l-0.3138-0.19394v1.0583c0 0.58208 0.11906 1.132 0.26458 1.222 0.14552 0.09 0.31496 1.8538 0.37654 3.9196 0.0616 2.0657 0.18592 4.1049 0.27634 4.5314 0.0904 0.42656 0.2574 2.244 0.37108 4.0388l0.2067 3.2632-0.30665 0.0103c-0.16865 6e-3 -1.4179 0.31852-2.7761 0.69528-2.8767 0.79797-2.6652 0.77588-3.3872 0.35387zm19.648-1.3197-1.3776-0.14165 0.23434-8.1775c0.12889-4.4976 0.41025-9.4475 0.62525-11l0.39091-2.8222 0.88268-1.65c1.0616-1.9846 2.1565-3.0487 4.5026-4.3766l1.7639-0.99829 3.175 9e-3 3.175 8e-3 2.034 0.79732c1.1187 0.43853 2.5051 1.1938 3.081 1.6783l1.047 0.88102 0.53497 1.8014 0.53497 1.8014v22.021l-0.55802 0.21413c-0.30691 0.11779-2.2783 0.21415-4.3809 0.21415s-4.074-0.0964-4.3809-0.21413l-0.55802-0.21414v-18.975h-0.98184l-0.23327 0.9294-0.23326 0.9294 0.24616 8.1665 0.24615 8.1665-1.211 1.211-3.5908-0.0593c-1.9749-0.0326-4.2107-0.12304-4.9684-0.20094zm163.9-0.90307-1.1275-1.1633v-1.6523l1.0583-1.72c0.58209-0.94601 1.0583-1.8076 1.0583-1.9146 0-0.10705 0.39687-0.71496 0.88194-1.3509l0.88194-1.1563v-0.76046c0-0.41825-0.13197-0.76045-0.29328-0.76045s-1.3122 1.5808-2.5576 3.513l-2.2644 3.513-1.4111 4e-3 -1.043-0.85236-1.0429-0.85237 0.66202-3.4565 0.66201-3.4565 0.85158-1.7225c0.46837-0.94739 1.5743-2.4952 2.4577-3.4396l1.6061-1.717h2.9514l1.5254 1.3057 1.5254 1.3057 0.83115 1.8794 0.83114 1.8794-5e-3 2.0184-5e-3 2.0184-0.43567 1.2376c-0.23961 0.68067-0.76529 1.7919-1.1682 2.4694-0.88502 1.4884-4.6745 5.9944-5.0412 5.9944-0.14381 0-0.76887-0.52349-1.389-1.1633zm19.205-4.3833c-0.17208-4.0841-0.12211-13.03 0.10534-18.856 0.0127-0.32467 0.42973-1.0736 0.92678-1.6643l0.90372-1.074 4.7041-2.3158 6.0121 0.0258 4.1379 2.0685 3.3422 3.7498 0.77386 2.6224 0.0694 10.231 0.0694 10.231-9.9801 0.1958v-19.028l-0.6568-0.40592-0.23851 0.3859c-0.13117 0.21226-0.26121 4.5408-0.28896 9.619l-0.0504 9.233-4.8051 0.0979-4.8051 0.0978zm-47.592-0.01c-2.3899-3.1329-4.3679-6.1662-4.9869-7.6476l-0.5625-1.3462v-3.8294l0.49767-0.95262c0.62964-1.2052 2.0583-2.532 4.0884-3.7969l1.5875-0.98912 3.175-4e-3 0.98817 0.64861c1.0136 0.66527 1.8081 1.8977 2.6249 4.0716 0.67964 1.8088 2.5605 9.6918 2.5605 10.731v0.89208l-0.97014 0.49576-0.97014 0.49575-1.4769-0.55696-0.60832-1.3547c-0.33458-0.74511-0.74353-1.6722-0.90878-2.0603s-0.71479-1.6184-1.2212-2.734l-0.92074-2.0285h-0.51883c-0.28536 0-0.51883 0.13138-0.51883 0.29196 0 0.32937 1.4764 4.0949 2.4445 6.2344 0.35116 0.77611 0.74387 1.7514 0.87271 2.1672l0.23424 0.75613-1.4864 1.2724c-0.81754 0.69985-1.6867 1.2724-1.9315 1.2724-0.24478 0-1.1414-0.91281-1.9925-2.0285zm-88.742-1.9803c-0.17052-0.22051-0.82558-2.3853-1.4557-4.8106l-1.1456-4.4097-0.18799-3.4198-0.188-3.4198 0.60177-1.5191c1.0341-2.6103 3.2379-4.5091 5.8002-4.9972l1.1943-0.22751 2.8775 0.77483 1.3018 1.3018 1.3018 1.3018 0.42843 1.5747 0.42842 1.5747-0.22145 3.175c-0.1218 1.7462-0.46068 4.9875-0.75308 7.2028l-0.53162 4.0278-0.7804 0.94032h-2.6494l-0.36123-0.44097c-0.42344-0.51691-1.1315-5.9365-1.1407-8.7312l-0.0064-1.9403-0.33462-0.52916-0.33462-0.52917-0.58064 0.58049-0.58064 0.58048 0.53252 5.2136 0.53253 5.2136-0.77283 1.2375-1.3321 0.33814-1.3321 0.33813-0.31004-0.40093zm123.62-13.166-3.0327-4.1222v-0.61947c0-0.34071 0.14449-0.70877 0.32108-0.81791 0.55963-0.34587 2.6981-4.5 3.8288-7.4374 1.4164-3.6799 2.1264-6.7771 2.7475-11.985l0.50488-4.2333 3e-3 -26.017 3e-3 -26.017h0.49977c0.27487 0 0.55269 0.14423 0.61736 0.32051 0.0647 0.17628 1.3551 1.6089 2.8676 3.1837l2.75 2.8632-0.124 31.3-0.124 31.3-0.75681 2.6458c-1.2633 4.4164-1.3644 4.7016-2.3793 6.706-0.95276 1.8818-4.2974 7.0523-4.562 7.0523-0.0723 0-1.4962-1.855-3.1642-4.1222zm-142.42 1.5646c-2.9271-4.0753-4.3802-7.4967-5.5063-12.965l-0.54488-2.6458-0.14681-30.339-0.14681-30.339 3.0476-3.2632c1.6762-1.7948 3.1932-3.2632 3.371-3.2632h0.32339l0.0055 22.842 0.0055 22.842 0.34538 5.2917c0.7472 11.448 2.6211 18.567 6.198 23.545 0.66373 0.92388 1.2068 1.8438 1.2068 2.0442 0 0.70124-5.8209 8.4534-6.3475 8.4534-0.125 0-0.93991-0.99219-1.8109-2.2049zm45.198-2.8334-4.059-3.9576-6.1287-4.0949-1.9501-2.1063c-5.2764-5.6988-8.3709-14.376-9.3631-26.254l-0.35362-4.2333-0.04172-27.34-0.04171-27.34 1.886-0.93584c3.1508-1.5635 9.7534-4.0841 12.368-4.7215l0.95666-0.23325 0.12633 33.637 0.12633 33.637 0.5663 3.175c1.0452 5.8602 1.3613 7.1532 3.1044 12.7 1.9837 6.3126 4.8914 11.108 9.1714 15.127l2.1656 2.0332-0.49389 0.59231c-0.27164 0.32578-1.174 1.4258-2.0051 2.4444s-1.6155 1.8471-1.743 1.841c-0.12745-6e-3 -2.0583-1.792-4.2907-3.9688zm50.306 1.5986c-1.0535-0.92163-1.9285-1.8182-1.9444-1.9924-0.0159-0.17421 1.2825-1.6823 2.8853-3.3514 6.2755-6.5349 9.5841-13.758 11.328-24.73 0.97109-6.1098 1.006-7.3727 1.0998-39.803l0.0932-32.218 0.64911-0.64912 3.1585 1.0817c3.3197 1.1369 7.4645 2.7753 9.8926 3.9104l1.4424 0.67431 0.4318 31.549-0.32043 14.509-0.32042 14.509-0.57886 3.483c-0.76431 4.5988-2.0638 9.1256-3.7135 12.936l-1.3435 3.1032-1.5736 2.2052c-1.9964 2.7977-4.8338 5.4481-11.015 10.289-2.7018 2.116-5.5363 4.37-6.2988 5.0087-0.76253 0.63874-1.5148 1.1614-1.6716 1.1614s-1.1472-0.75406-2.2007-1.6757zm102.45-7.536c-3.654-2.9613-5.6076-4.2916-7.0556-4.8043l-1.2347-0.43724-4.2333-6e-3 -1.0105 0.52699c-0.55577 0.28985-1.1763 0.52699-1.379 0.52699-0.5883 0-4.2083 2.7965-5.4269 4.1924-0.61252 0.7016-1.2139 1.1769-1.3365 1.0563-0.12255-0.12066-0.0769-2.5813 0.10149-5.468l0.32435-5.2487-0.29725-4.9389c-0.16344-2.7164-0.47343-5.9708-0.68884-7.2319-0.78507-4.5967-1.4855-7.9947-2.1816-10.583-0.39132-1.4552-0.83037-3.1221-0.97568-3.7042-0.44626-1.7877-2.5168-7.7095-3.022-8.6431-0.26251-0.48507-1.3287-2.7085-2.3692-4.9409-2.4722-5.3037-6.5914-11.839-10.783-17.108l-3.3678-4.2333-8.1709-8.1139-3.3445-2.5259c-6.3268-4.7778-14.964-9.7276-21.689-12.429-1.5522-0.62348-3.1397-1.2812-3.5278-1.4615-0.38805-0.18036-2.3846-0.87072-4.4367-1.5341-24.971-8.0725-53.932-7.8179-78.29 0.6885-2.0373 0.71147-4.3701 1.5925-5.1841 1.9577-0.81397 0.3653-1.5922 0.66417-1.7293 0.66417-0.13715 0-2.2493 0.98016-4.6937 2.1781-14.042 6.8821-25.623 16.583-32.562 27.279-9.6364 14.852-14.213 26.696-16.359 42.333l-0.58093 4.2333 0.0105 8.3897 0.0106 8.3897-4.2111-3.8988-4.7269-2.2862-5.2917 0.0623-1.9403 0.9344c-1.0672 0.51392-3.2103 1.9597-4.7625 3.2129l-2.8222 2.2785-0.73908 0.0135-0.73907 0.0136-0.51042-0.61735c-0.28073-0.33955-0.79159-1.4905-1.1352-2.5576l-0.62482-1.9403 0.13522-5.6444 0.13521-5.6444 0.44249-2.4694c1.7279-9.6432 2.3121-12.526 3.3604-16.581 5.7689-22.313 16.264-41.294 30.244-54.697 3.5404-3.3943 8.3299-7.343 9.8247-8.0999 0.6791-0.34388 1.3141-0.72363 1.4111-0.84389 0.20101-0.24918 2.9952-2.115 4.0569-2.7089 0.38806-0.2171 1.3406-0.74749 2.1167-1.1786 0.77611-0.43116 2.2049-1.2454 3.175-1.8095 3.0141-1.7524 12.592-6.4214 16.933-8.2544 5.4289-2.2923 12.4-4.7571 17.992-6.3612 1.1642-0.33398 2.5929-0.74498 3.175-0.91333 2.531-0.732 5.1323-1.3722 7.7611-1.9101 1.5522-0.31759 3.4572-0.71417 4.2333-0.88128s2.9986-0.54577 4.9389-0.84145c1.9403-0.29568 4.5597-0.72935 5.8208-0.9637l2.2931-0.4261 27.072-0.26182 0.54098 0.44919 0.54098 0.44919 2.8565 0.24154c1.571 0.13284 4.0471 0.49352 5.5023 0.8015 1.4552 0.30798 3.3821 0.70285 4.2819 0.87747 0.89983 0.17462 2.2492 0.48775 2.9986 0.69583 0.7494 0.20808 2.0298 0.37922 2.8452 0.3803 0.81548 0.0011 1.8474 0.14997 2.293 0.33087 0.44569 0.18089 1.7628 0.59268 2.927 0.91509 1.1642 0.32241 2.6723 0.79235 3.3514 1.0443 0.67909 0.25196 1.9491 0.66158 2.8222 0.91027 0.87312 0.24869 1.9844 0.65187 2.4694 0.89597s2.0726 0.87491 3.5278 1.4018c3.7618 1.3621 12.941 5.6879 16.757 7.8967 0.97013 0.56159 2.3806 1.3584 3.1343 1.7706 0.75374 0.41224 2.7331 1.6537 4.3985 2.7589 1.6654 1.1052 3.1919 2.0894 3.3921 2.1871 2.2324 1.0903 8.7713 6.1059 11.702 8.9757 6.4814 6.3472 13.736 14.836 15.542 18.187 0.36608 0.6791 1.3813 2.346 2.2561 3.7042 3.0425 4.7239 6.1562 11.096 8.792 17.992 0.81576 2.1343 1.6273 4.1981 1.8033 4.5861 0.29549 0.65135 1.0242 2.9902 2.3082 7.4083 0.28194 0.97014 0.82483 3.0339 1.2065 4.5861 0.38163 1.5522 0.86152 3.4401 1.0664 4.1953 0.20489 0.75519 0.5087 2.1046 0.67518 2.9986 0.16644 0.89405 0.55284 2.8955 0.85862 4.4478 0.30579 1.5522 0.72217 4.0922 0.92527 5.6444 0.20313 1.5522 0.61246 4.6478 0.90964 6.8792s0.61933 5.6937 0.71589 7.6941l0.17554 3.6371-0.75272 0.77257c-0.41399 0.42492-1.1034 1.2065-1.532 1.7368l-0.77929 0.9642-2.6458-2.1442zm-179.69-4.3572c-2.5355-2.3498-4.6805-10.422-5.5025-20.709l-0.35707-4.4681-0.01281-26.908-0.01277-26.908 0.44957-0.43092c0.44883-0.43021 1.1041-0.818 5.7223-3.3863l2.4505-1.3628 0.48655 0.1867 0.48654 0.18671-0.35556 57.328 0.34701 3.5015c0.40322 4.0687 0.98362 6.7466 2.2612 10.433 0.98798 2.8509 4.0733 9.3024 5.3446 11.176l0.78137 1.1514-0.26228 0.1621c-0.14425 0.0892-1.6842 0.25606-3.4221 0.3709-1.7379 0.11485-4.1269 0.28639-5.3088 0.38121l-2.1489 0.17239zm107.2 0.51724c-1.1642-0.13652-3.5057-0.16906-5.2035-0.0723l-3.0868 0.17591v-0.53381c0-0.2936 0.31871-0.93899 0.70824-1.4342 3.211-4.0822 6.0091-11.615 7.3486-19.785l0.58618-3.5751v-59.03l0.48045-0.48173 2.3562 1.2726c1.2959 0.69991 3.2182 1.787 4.2718 2.4157l1.9157 1.1431 0.21262 0.84213c0.11694 0.46317 0.1176 11.973 1e-3 25.576l-0.21116 24.734-0.52341 7.668-0.5234 7.668-0.90978 3.2681c-0.50038 1.7975-1.3616 4.6163-1.9139 6.264l-1.0041 2.9959-1.0179 0.61824c-0.55986 0.34003-1.0973 0.59574-1.1943 0.56823-0.097-0.0275-1.1289-0.1617-2.293-0.29822zm40.266 0.0885-3.4782-0.1158 0.18638-0.78051c0.10251-0.42928 0.91345-2.6388 1.8021-4.91 2.8207-7.2091 4.0762-13.158 5.0288-23.828l0.60627-6.791h0.29485c0.16218 0 0.35149 0.19844 0.42072 0.44097 0.0692 0.24254 0.53336 1.7903 1.0314 3.4396 0.80981 2.6815 1.3431 4.7869 2.3679 9.3486 0.17434 0.77611 0.5588 3.3704 0.85428 5.765l0.53728 4.3539v10.422l-0.95645 0.95644c-1.1626 1.1627-3.0377 1.9879-4.2901 1.8882-0.50988-0.0406-2.4922-0.12594-4.4052-0.18963zm-95.3-2.8819c-2.723-1.5779-5.5476-4.8326-8.2398-9.4947-2.2158-3.8371-3.5623-8.0086-4.6878-14.524l-0.45706-2.6458-0.01044-32.985-0.01044-32.985 7.0556-0.9657 19.05 0.0022 7.4083 0.96381 0.11159 23.107 0.1116 23.107-0.39576 8.8194c-0.4179 9.3128-1.1152 16.277-1.951 19.486-1.6754 6.4322-4.4721 11.538-8.6925 15.869l-1.7945 1.8417-2.958 1.4319-2.7758-6e-3 -1.7639-1.0221zm-76.376-100.23c0-0.20176 0.24497-0.46084 0.54438-0.57574 0.8274-0.3175 0.92455 0.02522 0.14513 0.51197l-0.68951 0.43061zm157.33-2.2369c-0.67679-0.45864-1.9846-1.2591-2.9062-1.7788l-1.6757-0.94488v-4.9091h0.30789c0.16934 0 0.76465 0.52177 1.3229 1.1595 0.55826 0.63771 1.9278 1.938 3.0435 2.8895l2.0285 1.73v2.6877h-0.44516c-0.24484 0-0.9989-0.37525-1.6757-0.83389zm-139-7.5446c-0.0687-1.9407 0.0035-19.241 0.08044-19.295 0.05792-0.0404 0.68138-0.41957 1.3855-0.8426 1.7057-1.0248 3.8483-3.3925 5.7993-6.4084 0.8788-1.3585 1.7697-2.47 1.9797-2.47h0.38184l-0.21866 1.3229c-0.12026 0.7276-0.22041 6.4447-0.22255 12.705l-0.0039 11.382-1.4993 0.6729c-4.8355 2.1702-5.6218 2.4929-6.0742 2.4929-0.27428 0-0.59682 0.15875-0.71673 0.35278-0.25464 0.41201-0.87766 0.47365-0.89131 0.0882zm121.36-1.8521c0-0.19403-0.21353-0.35278-0.47451-0.35278s-2.0469-0.68548-3.9688-1.5233l-3.4942-1.5233-0.0949-8.259c-0.0522-4.5424-7e-3 -8.4877 0.10013-8.7672l0.19502-0.50822 1.311 1.2442c0.72104 0.68429 2.0758 1.7582 3.0106 2.3864 0.93477 0.62822 1.7797 1.351 1.8776 1.6062 0.0979 0.25517 0.60223 0.57041 1.1207 0.70054 0.51846 0.13012 1.142 0.40201 1.3856 0.6042l0.44295 0.36761v14.377h-1.4111zm-110.43-2.3575c-8e-3 -0.1586-0.0018-6.8679 0.01429-14.91l0.02889-14.621 0.7052-2.1357c0.68692-2.0803 1.139-4.7335 2.2876-13.425 0.3077-2.3283 0.70628-4.8989 0.88572-5.7125 0.17943-0.81352 0.32624-2.1812 0.32624-3.0392v-1.5601l-0.7389-0.93936c-0.4064-0.51665-1.3635-1.258-2.1268-1.6474l-1.3879-0.70806 0.09835-4.6242 0.09835-4.6242 0.69696-0.39058c4.4189-2.4764 7.5108-5.1275 9.5327-8.1736l1.2356-1.8615v-2.0415l-0.97014-0.91158-0.97014-0.9116-4.0991-1.9817c-2.2545-1.0899-4.5287-2.3799-5.0538-2.8665l-0.95473-0.88482 0.15069-0.43302 0.15068-0.43303 2.818 0.0528 3.6705 1.5393c2.0188 0.84659 4.7818 2.1188 6.14 2.8271l2.4694 1.2879 0.09243 39.345 0.09243 39.345-0.44521 0.34122c-0.24487 0.18767-1.5565 0.61394-2.9147 0.94724-3.8625 0.94789-5.1831 1.3098-6.7146 1.8401-0.7826 0.27098-1.743 0.49269-2.1343 0.49269-0.39127 0-0.86221 0.14091-1.0465 0.31313-0.18433 0.17222-0.69233 0.42104-1.1289 0.55294l-0.79375 0.23981-0.0146-0.28836zm98.792-2.2023c-0.61878-0.33325-2.5496-1.0205-4.057-1.4439-0.58208-0.16353-1.9314-0.55754-2.9986-0.87559-1.0672-0.31805-2.5753-0.72878-3.3514-0.91273-0.77611-0.18396-1.7452-0.50484-2.1535-0.71307l-0.74241-0.3786 0.0368-23.78 0.0368-23.78 0.75056-7.05e-4c0.92943-0.0011 1.3031 0.47548 1.8356 2.3402l0.41663 1.459 1.2986 0.9905c0.71423 0.54477 1.7396 1.4757 2.2787 2.0687l0.9801 1.0782 2.9398 6.8334-0.43034 1.1214-1.603-0.37713-1.0257 0.66669 0.45991 0.85935c0.25295 0.47264 0.56906 1.393 0.70247 2.0453l0.24255 1.186 0.86873 0.4177c0.4778 0.22974 1.5037 0.6765 2.2798 0.99281 0.77611 0.31631 1.756 0.84547 2.1774 1.1759l0.76632 0.6008 0.11562 2.4694 0.11562 2.4694-0.77495 0.01058c-1.2155 0.01662-1.256 0.30371-0.32821 2.3277l0.86871 1.8951 0.31688 19.579-0.74677-0.02074c-0.41073-0.01144-0.9849-0.14902-1.2759-0.30576zm-65.177-40.989 0.08986-36.119 9.7341-0.1966 2.3673 0.705c1.302 0.38775 3.0806 1.1549 3.9524 1.7048 2.0624 1.3009 4.0345 2.0708 6.0962 2.38l1.6625 0.24931v-0.60296c0-1.1046-1.3954-2.5842-4.9691-5.2692l-3.5406-2.6601-1.7419-0.51727-1.7419-0.51728-4.058 1.1751-1.7646 0.0107-1.7646 0.0106-4.4084-3.3926-0.02695-2.0079c-0.01482-1.1043-0.2182-3.6472-0.45194-5.6507l-0.42498-3.6429 0.29121-0.17998c0.16016-0.099 0.95885 0.43414 1.7749 1.1847 0.81601 0.7506 3.3886 2.5375 5.717 3.9709 11.856 7.299 16.463 10.655 20.797 15.151l1.3945 1.4465h4.0038l0.39943 0.48128 0.39943 0.48128-0.0105 32.663-0.0106 32.663-0.38958 0.24077c-0.21426 0.13242-3.7433 0.27478-7.8422 0.31635l-7.4526 0.07558-2.8222 0.4028c-2.823 0.4029-8.4819 0.99938-12.966 1.3667l-2.3829 0.19518 0.08987-36.119zm-61.077 25.529-2.1339-1.6757-0.0231-8.2903h0.96458l0.86261 1.3229c0.47444 0.7276 1.1359 2.2754 1.47 3.4396s0.87727 2.9898 1.2072 4.0569c0.32989 1.0672 0.65364 2.1387 0.71944 2.3813l0.11963 0.44097h-0.52625c-0.28944 0-1.4865-0.75406-2.6602-1.6757zm130.02-6.3206c-0.12935-0.12935-0.23518-0.83436-0.23518-1.5667v-1.3315l0.3284-0.20296c0.44009-0.27199 0.60282 0.06142 0.89663 1.837l0.2481 1.4993h-0.50139c-0.27575 0-0.60721-0.10583-0.73656-0.23519zm-16.933-33.161c-0.12935-0.12935-0.23519-0.84372-0.23519-1.5875v-1.3523l1.2347 0.0064 1.3229 1.2539c0.72761 0.68964 1.3229 1.4026 1.3229 1.5844v0.33056h-1.7051c-0.93781 0-1.8109-0.10583-1.9403-0.23519zm-88.5-3.91c-1.2407-1.3261-2.0466-3.0169-2.0466-4.2939v-1.0658l2.2931-0.63119 0.40411 0.3937 0.40411 0.3937 0.48983 6.1736h-0.31844c-0.17514 0-0.7269-0.43656-1.2261-0.97014zm14.971-36.639-1.5037-1.5497h-1.6599l-1.8541 1.4584-1.9452-0.22373-0.11976-0.84743-0.11976-0.84744 0.94136-3.5623 0.94136-3.5623-0.74378-1.9403-1.9577 0.016-0.75566 0.60952c-1.0958 0.88387-1.7563 2.3926-2.3895 5.4584-0.30743 1.4884-0.56139 2.8318-0.56436 2.9856-3e-3 0.15369-0.15929 0.0413-0.34738-0.24972l-0.34197-0.52916-0.0054-9.0361-0.0054-9.0361 1.6367-0.22434c0.90021-0.12338 2.2296-0.22434 2.9543-0.22434 0.72464 0 1.9924-0.23812 2.8173-0.52916 0.8249-0.29105 1.9505-0.52917 2.5014-0.52917h1.0016l0.35314 0.65986c0.19423 0.36292 0.5068 1.2757 0.6946 2.0285 0.1878 0.75274 0.60076 2.4005 0.91768 3.6617 0.75436 3.002 1.5227 8.1044 1.7672 11.735 0.10756 1.5977 0.26678 3.5795 0.35382 4.4042l0.15826 1.4993-1.2212-0.0756zm-37.949-7.4293c-0.12935-0.12935-0.23519-0.84373-0.23519-1.5875v-1.3523h0.39021c0.21461 0 1.048 0.50688 1.8521 1.1264 0.80403 0.61949 1.5367 1.1838 1.628 1.2539 0.09139 0.0701-0.06736 0.27521-0.35278 0.45572-0.59863 0.37858-2.9338 0.45244-3.2824 0.10381z" stroke-width=".35278"/></g></svg>
